<svg xmlns="http://www.w3.org/2000/svg" xmlns:svg="http://www.w3.org/2000/svg" width="640" height="480"><rect id="backgroundrect" width="100%" height="100%" x="0" y="0" fill="none" stroke="none"/>
 <!-- Created with SVG-edit - http://svg-edit.googlecode.com/ -->
 <g class="currentLayer">
  <title>Layer 1</title>
  <g stroke="null" id="svg_14" class="selected" stroke-width="3">
   <path stroke="#000000" id="svg_12" d="m361.442925,254.37707c0,6.736113 -24.57315,12.196813 -54.885667,12.196813m54.885667,-12.196813l0,0c0,6.736113 -24.57315,12.196813 -54.885667,12.196813c-30.312506,0 -54.885649,-5.460689 -54.885649,-12.196813m0,0l0,0c0,-6.736106 24.573143,-12.19681 54.885649,-12.19681c30.312517,0 54.885667,5.460704 54.885667,12.19681l0,48.78727c0,6.736106 -24.57315,12.196791 -54.885667,12.196791c-30.312506,0 -54.885649,-5.460684 -54.885649,-12.196791l0,-48.78727z" stroke-linecap="null" stroke-linejoin="null" stroke-dasharray="null" stroke-width="3" fill="#ffffff"/>
   <path stroke="#000000" id="svg_13" d="m361.815226,216.789972c0,6.736113 -24.57315,12.196813 -54.885667,12.196813m54.885667,-12.196813l0,0c0,6.736113 -24.57315,12.196813 -54.885667,12.196813c-30.312506,0 -54.885649,-5.460689 -54.885649,-12.196813m0,0l0,0c0,-6.736106 24.573143,-12.19681 54.885649,-12.19681c30.312517,0 54.885667,5.460704 54.885667,12.19681l0,48.78727c0,6.736106 -24.57315,12.196791 -54.885667,12.196791c-30.312506,0 -54.885649,-5.460684 -54.885649,-12.196791l0,-48.78727z" stroke-linecap="null" stroke-linejoin="null" stroke-dasharray="null" stroke-width="3" fill="#ffffff"/>
   <path stroke="#000000" id="svg_14" d="m362.16046,177.030052c0,6.736113 -24.57315,12.196813 -54.885667,12.196813m54.885667,-12.196813l0,0c0,6.736113 -24.57315,12.196813 -54.885667,12.196813c-30.312506,0 -54.885649,-5.460689 -54.885649,-12.196813m0,0l0,0c0,-6.736106 24.573143,-12.19681 54.885649,-12.19681c30.312517,0 54.885667,5.460704 54.885667,12.19681l0,48.78727c0,6.736106 -24.57315,12.196791 -54.885667,12.196791c-30.312506,0 -54.885649,-5.460684 -54.885649,-12.196791l0,-48.78727z" stroke-linecap="null" stroke-linejoin="null" stroke-dasharray="null" stroke-width="3" fill="#ffffff"/>
  </g>
  <path id="svg_138" d="m93.812798,285.31061c2.029372,1.045793 4.79939,3.489927 6.944302,2.595226c1.407229,-0.577704 2.230828,-3.854325 3.104791,-5.57855c6.579904,-12.964278 13.731588,-27.70907 18.936852,-40.323763c0,-0.562891 0.299221,-0.998392 -0.145167,-1.762739c2.912222,-4.740138 4.888268,-9.948365 8.070085,-15.221769c1.007279,-1.676824 2.032334,-4.002454 3.445488,-4.671999l2.610039,-1.090232c3.318097,-0.853225 5.741492,-0.823599 8.055272,1.401303c1.173184,1.134671 1.712375,3.007025 2.847046,4.132808c0.76731,0.770272 3.691383,2.663365 4.778652,2.370069c0.844337,-0.228119 1.540545,-1.078381 2.133062,-2.156763l2.06196,-3.809886c0.577704,-1.084307 0.906551,-2.127137 0.636956,-2.959624c-0.346623,-1.072456 -3.531403,-2.488573 -4.597934,-2.710767c-1.564246,-0.334772 -3.418825,0.239969 -5.012696,-0.121466c-3.131454,-0.719908 -4.482393,-2.731505 -5.57855,-5.984424c-7.726425,-4.541645 -18.128066,-7.495344 -30.239119,-3.685457c-3.285508,1.033943 -6.434738,1.819028 -8.594463,3.919502c-0.432538,1.220586 0.42365,1.463518 1.321314,1.448705c-0.702133,0.639919 -1.836804,1.010242 -1.182072,2.512273c7.391653,-3.395124 21.745384,-4.568308 22.720075,2.381919c0.213306,1.54647 -1.170222,3.67657 -2.020484,5.436346c-2.681141,5.551887 -5.957761,10.055018 -8.333755,15.082527c-0.882851,0.050364 -1.084307,0.533266 -1.555358,0.850262c-7.714575,11.257828 -16.149058,25.30345 -23.404432,37.90333c-0.965803,1.676824 -3.25292,4.153546 -2.968512,5.64669c0.426612,2.284154 3.937277,3.347723 5.966649,4.396478z" stroke-linecap="null" stroke-linejoin="null" stroke-dasharray="null" stroke-width="3" stroke="#000000" fill="#ffffff" class="selected"/>
  <path id="svg_139" d="m534.266813,198.719899l0,95.350775l31.581148,0l0,-95.350775l-31.581148,0zm-43.727744,95.350775l31.581148,0l0,-115.999987l-31.581148,0l0,115.999987zm-43.727744,0l31.581148,0l0,-74.701562l-31.581148,0l0,74.701562z" stroke-linecap="null" stroke-linejoin="null" stroke-dasharray="null" stroke-width="3" stroke="#000000" fill="#ffffff" class="selected"/>
 </g>
</svg>