<?xml version="1.0"?>
<svg width="640" height="480" xmlns="http://www.w3.org/2000/svg" xmlns:svg="http://www.w3.org/2000/svg">
 <!-- Created with SVG-edit - http://svg-edit.googlecode.com/ -->
 <g>
  <title>Layer 1</title>
  <g stroke="null" id="svg_14">
   <path stroke="#000000" id="svg_12" d="m129.17162,109.527794c0,4.510326 -16.453541,8.166668 -36.750012,8.166668m36.750012,-8.166668l0,0c0,4.510326 -16.453541,8.166668 -36.750012,8.166668c-20.296464,0 -36.75,-3.656335 -36.75,-8.166668m0,0l0,0c0,-4.510321 16.453536,-8.166666 36.75,-8.166666c20.296471,0 36.750012,3.656345 36.750012,8.166666l0,32.666684c0,4.510321 -16.453541,8.166653 -36.750012,8.166653c-20.296464,0 -36.75,-3.656332 -36.75,-8.166653l0,-32.666684z" stroke-linecap="null" stroke-linejoin="null" stroke-dasharray="null" stroke-width="5" fill="#ffffff"/>
   <path stroke="#000000" id="svg_13" d="m129.420903,84.360453c0,4.510326 -16.453541,8.166668 -36.750012,8.166668m36.750012,-8.166668l0,0c0,4.510326 -16.453541,8.166668 -36.750012,8.166668c-20.296464,0 -36.75,-3.656335 -36.75,-8.166668m0,0l0,0c0,-4.510321 16.453536,-8.166666 36.75,-8.166666c20.296471,0 36.750012,3.656345 36.750012,8.166666l0,32.666684c0,4.510321 -16.453541,8.166653 -36.750012,8.166653c-20.296464,0 -36.75,-3.656332 -36.75,-8.166653l0,-32.666684z" stroke-linecap="null" stroke-linejoin="null" stroke-dasharray="null" stroke-width="5" fill="#ffffff"/>
   <path stroke="#000000" id="svg_14" d="m129.420903,53.360453c0,4.510326 -16.453541,8.166668 -36.750012,8.166668m36.750012,-8.166668l0,0c0,4.510326 -16.453541,8.166668 -36.750012,8.166668c-20.296464,0 -36.75,-3.656335 -36.75,-8.166668m0,0l0,0c0,-4.510321 16.453536,-8.166666 36.75,-8.166666c20.296471,0 36.750012,3.656345 36.750012,8.166666l0,32.666684c0,4.510321 -16.453541,8.166653 -36.750012,8.166653c-20.296464,0 -36.75,-3.656332 -36.75,-8.166653l0,-32.666684z" stroke-linecap="null" stroke-linejoin="null" stroke-dasharray="null" stroke-width="5" fill="#ffffff"/>
  </g>
  <g stroke="null" id="svg_26">
   <rect stroke="#000000" id="svg_16" height="83.561549" width="48.350079" y="353.189218" x="62.579117" stroke-linecap="null" stroke-linejoin="null" stroke-dasharray="null" stroke-width="5" fill="#ffffff"/>
   <line stroke="#000000" id="svg_17" y2="370.006636" x2="93.607246" y1="370.006636" x1="67.309016" stroke-linecap="null" stroke-linejoin="null" stroke-dasharray="null" stroke-width="5" fill="none"/>
   <line stroke="#000000" id="svg_18" y2="387.875143" x2="98.845914" y1="387.875143" x1="66.257927" stroke-linecap="null" stroke-linejoin="null" stroke-dasharray="null" stroke-width="5" fill="none"/>
   <line stroke="#000000" id="svg_19" y2="396.809397" x2="99.894885" y1="396.809397" x1="67.306899" stroke-linecap="null" stroke-linejoin="null" stroke-dasharray="null" stroke-width="5" fill="none"/>
   <line stroke="#000000" id="svg_20" y2="405.218106" x2="101.997063" y1="405.218106" x1="69.409076" stroke-linecap="null" stroke-linejoin="null" stroke-dasharray="null" stroke-width="5" fill="none"/>
   <line stroke="#000000" id="svg_22" y2="414.677904" x2="103.573696" y1="414.677904" x1="70.985709" stroke-linecap="null" stroke-linejoin="null" stroke-dasharray="null" stroke-width="5" fill="none"/>
   <line stroke="#000000" id="svg_23" y2="424.663247" x2="106.201417" y1="424.663247" x1="73.613431" stroke-linecap="null" stroke-linejoin="null" stroke-dasharray="null" stroke-width="5" fill="none"/>
   <rect stroke="#000000" id="svg_24" height="7.357621" width="7.357621" y="366.327826" x="99.36722" stroke-linecap="null" stroke-linejoin="null" stroke-dasharray="null" stroke-width="5" fill="none"/>
   <path stroke="#000000" id="svg_25" d="m129.364417,343.550482l-1.172037,-4.102128c0.343477,-0.301295 0.665862,-0.623681 0.97017,-0.968663l4.099116,1.172037c0.432358,-0.629706 0.804457,-1.298581 1.137388,-1.993065l-3.05061,-2.952689c0.146127,-0.433865 0.272671,-0.875262 0.36306,-1.330217l4.111168,-1.030429c0.030129,-0.379631 0.058752,-0.760769 0.058752,-1.14944s-0.030129,-0.768301 -0.058752,-1.147933l-4.111168,-1.030428c-0.091895,-0.454955 -0.218439,-0.896352 -0.36306,-1.330216l3.052116,-2.95269c-0.334437,-0.692978 -0.706536,-1.363358 -1.138894,-1.993065l-4.099116,1.170531c-0.302801,-0.343476 -0.626693,-0.665862 -0.97017,-0.968663l1.172037,-4.100623c-0.629706,-0.430851 -1.300087,-0.804457 -1.994571,-1.137388l-2.95269,3.052117c-0.432358,-0.146128 -0.875261,-0.271166 -1.330217,-0.36306l-1.028922,-4.112674c-0.381137,-0.028624 -0.760768,-0.058753 -1.149439,-0.058753s-0.768301,0.030129 -1.147933,0.058753l-1.030428,4.112674c-0.454955,0.091894 -0.896353,0.216932 -1.330217,0.36306l-2.952689,-3.052117c-0.692978,0.337451 -1.361853,0.70955 -1.991559,1.141907l1.172037,4.100623c-0.343476,0.301295 -0.667369,0.625187 -0.968663,0.967156l-4.100622,-1.172036c-0.432359,0.629706 -0.804457,1.300087 -1.137388,1.994571l3.052116,2.952689c-0.144621,0.433865 -0.271165,0.875262 -0.36306,1.330217l-4.112674,1.030428c-0.028623,0.379632 -0.058753,0.76077 -0.058753,1.147934s0.03013,0.768302 0.058753,1.149439l4.112674,1.030429c0.091895,0.454955 0.218439,0.896352 0.36306,1.330217l-3.052116,2.952688c0.332931,0.692979 0.705029,1.363359 1.137388,1.993066l4.100622,-1.172037c0.301294,0.344982 0.625187,0.665861 0.968663,0.968663l-1.172037,4.102129c0.629706,0.430852 1.300087,0.80295 1.993066,1.137387l2.952688,-3.052115c0.433865,0.146127 0.875262,0.272671 1.330217,0.36306l1.030428,4.111167c0.379632,0.03013 0.760769,0.058753 1.14944,0.058753s0.768302,-0.03013 1.14944,-0.058753l1.028921,-4.111167c0.454956,-0.091895 0.897859,-0.21844 1.330217,-0.36306l2.95269,3.052115c0.691471,-0.337449 1.361852,-0.709549 1.991558,-1.140401zm-8.454332,-7.232581c-2.827652,0 -5.120506,-2.292854 -5.120506,-5.120506s2.292854,-5.118999 5.120506,-5.118999s5.118999,2.291347 5.118999,5.118999s-2.291348,5.120506 -5.118999,5.120506zm23.338296,10.703498c0.028623,-0.824041 -0.090388,-1.663147 -0.346489,-2.491708l1.874054,-2.670979c-0.283218,-0.527266 -0.60259,-1.027415 -0.96565,-1.48237l-3.196738,0.670381c-0.644771,-0.548357 -1.378424,-0.976195 -2.163297,-1.28201l-0.920455,-3.131959c-0.5815,-0.102441 -1.170531,-0.15818 -1.767094,-0.159687l-1.467306,2.916535c-0.420307,0.081349 -0.840613,0.192828 -1.253387,0.351008c-0.387164,0.147634 -0.748717,0.331424 -1.095206,0.531785l-3.021987,-1.233802c-0.447423,0.394696 -0.855678,0.821028 -1.224764,1.283516l1.366372,2.964741c-0.390177,0.745704 -0.658329,1.548656 -0.78186,2.387761l-2.848743,1.596863c0.028624,0.584511 0.114493,1.169024 0.247062,1.755042l3.169622,0.78186c0.347995,0.789392 0.815002,1.495929 1.37993,2.098519l-0.530279,3.220841c0.482072,0.346489 0.994273,0.644771 1.526058,0.903884l2.583604,-1.988545c0.80747,0.212412 1.652602,0.293762 2.503759,0.225971l2.187401,2.420904c0.301295,-0.085869 0.601083,-0.177764 0.897858,-0.29075c0.263633,-0.099427 0.512202,-0.216932 0.76077,-0.335943l0.05574,-3.261517c0.685445,-0.510695 1.269957,-1.125336 1.735457,-1.816808l3.255491,-0.201867c0.228984,-0.540824 0.420306,-1.102739 0.554382,-1.679719l-2.514305,-2.081947zm-6.271451,3.023494c-1.809276,0.689965 -3.833977,-0.216933 -4.525449,-2.026208s0.215426,-3.835483 2.024702,-4.526954c1.809275,-0.689966 3.836989,0.216932 4.52846,2.026207c0.689965,1.809275 -0.218438,3.835483 -2.027713,4.526955z" stroke-linecap="null" stroke-linejoin="null" stroke-dasharray="null" stroke-width="5" fill="none"/>
  </g>
  <g stroke="null" id="svg_60">
   <path stroke="#000000" id="svg_42" d="m104.421316,282.930202c0,2.247496 -8.198803,4.069452 -18.31254,4.069452m18.31254,-4.069452l0,0c0,2.247496 -8.198803,4.069452 -18.31254,4.069452c-10.113733,0 -18.312534,-1.821952 -18.312534,-4.069452m0,0l0,0c0,-2.247494 8.198801,-4.069452 18.312534,-4.069452c10.113737,0 18.31254,1.821958 18.31254,4.069452l0,16.277817c0,2.247494 -8.198803,4.069445 -18.31254,4.069445c-10.113733,0 -18.312534,-1.821951 -18.312534,-4.069445l0,-16.277817z" stroke-linecap="null" stroke-linejoin="null" stroke-dasharray="null" stroke-width="5" fill="#ffffff"/>
   <path stroke="#000000" id="svg_43" d="m104.545534,270.389309c0,2.247497 -8.198804,4.069453 -18.31254,4.069453m18.31254,-4.069453l0,0c0,2.247497 -8.198804,4.069453 -18.31254,4.069453c-10.113733,0 -18.312535,-1.821953 -18.312535,-4.069453m0,0l0,0c0,-2.247494 8.198802,-4.069452 18.312535,-4.069452c10.113736,0 18.31254,1.821958 18.31254,4.069452l0,16.277817c0,2.247494 -8.198804,4.069445 -18.31254,4.069445c-10.113733,0 -18.312535,-1.821951 -18.312535,-4.069445l0,-16.277817z" stroke-linecap="null" stroke-linejoin="null" stroke-dasharray="null" stroke-width="5" fill="#ffffff"/>
   <path stroke="#000000" id="svg_44" d="m104.545534,254.942001c0,2.247497 -8.198804,4.069453 -18.31254,4.069453m18.31254,-4.069453l0,0c0,2.247497 -8.198804,4.069453 -18.31254,4.069453c-10.113733,0 -18.312535,-1.821953 -18.312535,-4.069453m0,0l0,0c0,-2.247494 8.198802,-4.069451 18.312535,-4.069451c10.113736,0 18.31254,1.821957 18.31254,4.069451l0,16.277817c0,2.247494 -8.198804,4.069446 -18.31254,4.069446c-10.113733,0 -18.312535,-1.821952 -18.312535,-4.069446l0,-16.277817z" stroke-linecap="null" stroke-linejoin="null" stroke-dasharray="null" stroke-width="5" fill="#ffffff"/>
  </g>
  <line stroke="#000000" id="svg_50" y2="345" x2="84" y1="313" x1="84" stroke-linecap="null" stroke-linejoin="null" stroke-dasharray="null" stroke-width="5" fill="none"/>
  <path id="svg_124" d="m146.259971,265.879651l0,0c0,-4.072913 3.224372,-7.374662 7.201836,-7.374662l3.273564,0l0,0l15.713101,0l29.462057,0c1.910051,0 3.741865,0.77697 5.092474,2.159988c1.350601,1.383018 2.109367,3.258793 2.109367,5.214674l0,18.436656l0,0l0,11.06199l0,0c0,4.072915 -3.22437,7.374662 -7.201839,7.374662l-29.462057,0l-20.527228,18.752051l4.814127,-18.752051l-3.273564,0c-3.977464,0 -7.201836,-3.301746 -7.201836,-7.374662l0,0l0,-11.06199l0,0l-0.000002,-18.436656z" stroke-linecap="null" stroke-linejoin="null" stroke-dasharray="null" stroke-width="5" stroke="#000000" fill="#ffffff"/>
  <g stroke="null" id="svg_125">
   <rect stroke="#000000" id="svg_126" height="132.199471" width="76.492776" y="185.06439" x="417.908231" stroke-linecap="null" stroke-linejoin="null" stroke-dasharray="null" stroke-width="5" fill="#ffffff"/>
   <line stroke="#000000" id="svg_127" y2="211.670573" x2="466.996625" y1="211.670573" x1="425.39122" stroke-linecap="null" stroke-linejoin="null" stroke-dasharray="null" stroke-width="5" fill="none"/>
   <line stroke="#000000" id="svg_128" y2="239.939642" x2="475.284517" y1="239.939642" x1="423.728333" stroke-linecap="null" stroke-linejoin="null" stroke-dasharray="null" stroke-width="5" fill="none"/>
   <line stroke="#000000" id="svg_129" y2="254.074176" x2="476.944054" y1="254.074176" x1="425.38787" stroke-linecap="null" stroke-linejoin="null" stroke-dasharray="null" stroke-width="5" fill="none"/>
   <line stroke="#000000" id="svg_130" y2="267.377268" x2="480.269827" y1="267.377268" x1="428.713643" stroke-linecap="null" stroke-linejoin="null" stroke-dasharray="null" stroke-width="5" fill="none"/>
   <line stroke="#000000" id="svg_131" y2="282.343246" x2="482.764157" y1="282.343246" x1="431.207973" stroke-linecap="null" stroke-linejoin="null" stroke-dasharray="null" stroke-width="5" fill="none"/>
   <line stroke="#000000" id="svg_132" y2="298.140667" x2="486.921373" y1="298.140667" x1="435.365189" stroke-linecap="null" stroke-linejoin="null" stroke-dasharray="null" stroke-width="5" fill="none"/>
   <rect stroke="#000000" id="svg_133" height="11.640205" width="11.640205" y="205.85047" x="476.109256" stroke-linecap="null" stroke-linejoin="null" stroke-dasharray="null" stroke-width="5" fill="none"/>
   <path stroke="#000000" id="svg_134" d="m523.566652,169.815322l-1.854234,-6.489817c0.543402,-0.476667 1.053434,-0.986701 1.534868,-1.532484l6.485052,1.854234c0.684017,-0.996233 1.2727,-2.054434 1.799417,-3.15315l-4.826251,-4.671334c0.231182,-0.686401 0.431382,-1.384718 0.574383,-2.104484l6.504119,-1.630202c0.047666,-0.600599 0.092949,-1.203583 0.092949,-1.818484s-0.047666,-1.215499 -0.092949,-1.8161l-6.504119,-1.6302c-0.145383,-0.719767 -0.345584,-1.418084 -0.574383,-2.104483l4.828634,-4.671336c-0.5291,-1.096333 -1.117783,-2.156916 -1.8018,-3.15315l-6.485052,1.851851c-0.47905,-0.5434 -0.991467,-1.053434 -1.534868,-1.532484l1.854234,-6.487436c-0.996233,-0.681633 -2.056817,-1.2727 -3.155533,-1.799417l-4.671336,4.828635c-0.684017,-0.231183 -1.384716,-0.429001 -2.104484,-0.574383l-1.627817,-6.506501c-0.602982,-0.045285 -1.203581,-0.092951 -1.818483,-0.092951s-1.215499,0.047666 -1.8161,0.092951l-1.6302,6.506501c-0.719767,0.145382 -1.418085,0.3432 -2.104484,0.574383l-4.671334,-4.828635c-1.096333,0.533868 -2.154535,1.122551 -3.150768,1.806567l1.854234,6.487436c-0.5434,0.476667 -1.055818,0.989084 -1.532484,1.5301l-6.487434,-1.854232c-0.684018,0.996233 -1.2727,2.056817 -1.799417,3.155533l4.828634,4.671334c-0.228799,0.686401 -0.429,1.384718 -0.574383,2.104484l-6.506501,1.6302c-0.045283,0.600601 -0.092951,1.203585 -0.092951,1.816102s0.047667,1.215501 0.092951,1.818483l6.506501,1.630202c0.145383,0.719767 0.345584,1.418084 0.574383,2.104484l-4.828634,4.671333c0.526717,1.096335 1.115399,2.156917 1.799417,3.153152l6.487434,-1.854234c0.476665,0.545783 0.989084,1.053433 1.532484,1.532484l-1.854234,6.489818c0.996233,0.681634 2.056817,1.270316 3.153152,1.799416l4.671333,-4.828632c0.686401,0.231182 1.384718,0.431382 2.104484,0.574383l1.6302,6.504117c0.600601,0.047667 1.203583,0.092951 1.818484,0.092951s1.215501,-0.047667 1.818484,-0.092951l1.627816,-6.504117c0.719768,-0.145383 1.420468,-0.345585 2.104484,-0.574383l4.671336,4.828632c1.093949,-0.533865 2.154533,-1.12255 3.150766,-1.804184zm-13.375269,-11.442385c-4.473518,0 -8.100953,-3.627435 -8.100953,-8.100953s3.627435,-8.098569 8.100953,-8.098569s8.098569,3.625051 8.098569,8.098569s-3.625052,8.100953 -8.098569,8.100953zm36.922609,16.933587c0.045283,-1.303683 -0.142999,-2.6312 -0.548167,-3.942034l2.964868,-4.225652c-0.448068,-0.834167 -0.953334,-1.625433 -1.527717,-2.3452l-5.057435,1.060584c-1.020067,-0.867534 -2.180751,-1.5444 -3.422468,-2.028218l-1.456216,-4.95495c-0.919968,-0.162068 -1.851851,-0.25025 -2.795651,-0.252635l-2.321368,4.614136c-0.664951,0.128699 -1.329901,0.305066 -1.982935,0.555316c-0.612517,0.233566 -1.184516,0.524333 -1.732683,0.841316l-4.780968,-1.95195c-0.70785,0.624433 -1.353735,1.298916 -1.937651,2.030601l2.161684,4.690401c-0.617284,1.179749 -1.041517,2.450068 -1.23695,3.777584l-4.506885,2.526335c0.045285,0.924732 0.181135,1.849467 0.390867,2.776584l5.014535,1.23695c0.550549,1.248866 1.289383,2.366651 2.183133,3.319985l-0.838934,5.095567c0.762667,0.548167 1.573001,1.020067 2.414317,1.43l4.087419,-3.146c1.277467,0.336049 2.614517,0.464749 3.9611,0.3575l3.460602,3.830018c0.476667,-0.13585 0.95095,-0.281233 1.420466,-0.459984c0.417083,-0.1573 0.810335,-0.3432 1.203585,-0.531482l0.088184,-5.159919c1.084416,-0.807951 2.009149,-1.78035 2.745599,-2.874301l5.150385,-0.319366c0.362267,-0.855617 0.66495,-1.7446 0.877066,-2.657418l-3.977784,-3.293767zm-9.921818,4.783352c-2.862385,1.091567 -6.065586,-0.343201 -7.159537,-3.205585s0.340817,-6.067968 3.203202,-7.161918c2.862383,-1.091568 6.070351,0.3432 7.1643,3.205583c1.091567,2.862383 -0.345582,6.067968 -3.207966,7.161919z" stroke-linecap="null" stroke-linejoin="null" stroke-dasharray="null" stroke-width="5" fill="none"/>
  </g>
  <line id="svg_135" y2="253" x2="409" y1="274" x1="215" stroke-linecap="null" stroke-linejoin="null" stroke-dasharray="null" stroke-width="5" stroke="#000000" fill="none"/>
  <path stroke="#000000" id="svg_136" d="m402.126482,135.783204l0,0c0,-3.555717 -3.084654,-6.438195 -6.889766,-6.438195l-3.131714,0l0,0l-15.032221,0l-28.185406,0c-1.827284,0 -3.579722,0.678307 -4.871807,1.885703c-1.292077,1.207397 -2.017963,2.844978 -2.017963,4.552492l0,16.095489l0,0l0,9.65729l0,0c0,3.555719 3.084652,6.438195 6.889768,6.438195l28.185406,0l19.637741,16.370833l-4.605521,-16.370833l3.131714,0c3.805113,0 6.889766,-2.882476 6.889766,-6.438195l0,0l0,-9.65729l0,0l0.000002,-16.095489z" stroke-linecap="null" stroke-linejoin="null" stroke-dasharray="null" stroke-width="5" fill="none"/>
  <line id="svg_137" y2="136" x2="331" y1="103" x1="146" stroke-linecap="null" stroke-linejoin="null" stroke-dasharray="null" stroke-width="5" stroke="#000000" fill="none"/>
 </g>
</svg>