<svg xmlns="http://www.w3.org/2000/svg" xmlns:svg="http://www.w3.org/2000/svg" width="640" height="480"><rect id="backgroundrect" width="100%" height="100%" x="0" y="0" fill="none" stroke="none"/>
 <!-- Created with SVG-edit - http://svg-edit.googlecode.com/ -->

 <g class="currentLayer">
  <title>Layer 1</title>
  
   <!-- Created with SVG-edit - http://svg-edit.googlecode.com/ -->
   
    
    <g id="svg_68" stroke="#000000" stroke-width="3" stroke-opacity="1" fill="#ffffff" fill-opacity="1" class="selected">
     <path fill="#ffffff" stroke-width="3" stroke-dasharray="null" stroke-linejoin="null" stroke-linecap="null" d="m113.66093947609146,83.07540328905866 c0,5.379956587531876 -19.625910057849257,9.741267283036708 -43.83569680962643,9.741267283036708 m43.83569680962643,-9.741267283036708 l0,0 c0,5.379956587531876 -19.625910057849257,9.741267283036708 -43.83569680962643,9.741267283036708 c-24.209786751777166,0 -43.83568488154891,-4.361298767427312 -43.83568488154891,-9.741267283036708 m0,0 l0,0 c0,-5.379944659454358 19.625898129771738,-9.741255354959188 43.83568488154891,-9.741255354959188 c24.209786751777166,0 43.83569680962643,4.361310695504831 43.83569680962643,9.741255354959188 l0,38.96508106022435 c0,5.379944659454358 -19.625910057849257,9.74124342688167 -43.83569680962643,9.74124342688167 c-24.209786751777166,0 -43.83568488154891,-4.361298767427312 -43.83568488154891,-9.74124342688167 l0,-38.96508106022435 z" id="svg_71" stroke="#000000" stroke-opacity="1" fill-opacity="1"/>
     <path fill="#ffffff" stroke-width="3" stroke-dasharray="null" stroke-linejoin="null" stroke-linecap="null" d="m113.95828259247982,53.05560504288721 c0,5.379956587531876 -19.625910057849257,9.741267283036708 -43.83569680962643,9.741267283036708 m43.83569680962643,-9.741267283036708 l0,0 c0,5.379956587531876 -19.625910057849257,9.741267283036708 -43.83569680962643,9.741267283036708 c-24.20977482369965,0 -43.83568488154891,-4.361298767427312 -43.83568488154891,-9.741267283036708 m0,0 l0,0 c0,-5.379944659454358 19.625910057849257,-9.741255354959188 43.83568488154891,-9.741255354959188 c24.209786751777166,0 43.83569680962643,4.361310695504831 43.83569680962643,9.741255354959188 l0,38.96508106022435 c0,5.379944659454358 -19.625910057849257,9.74124342688167 -43.83569680962643,9.74124342688167 c-24.20977482369965,0 -43.83568488154891,-4.361298767427312 -43.83568488154891,-9.74124342688167 l0,-38.96508106022435 z" id="svg_70" stroke="#000000" stroke-opacity="1" fill-opacity="1"/>
     <path fill="#ffffff" stroke-width="3" stroke-dasharray="null" stroke-linejoin="null" stroke-linecap="null" d="m113.95828259247982,16.078564734641866 c0,5.379956587531876 -19.625910057849257,9.741267283036708 -43.83569680962643,9.741267283036708 m43.83569680962643,-9.741267283036708 l0,0 c0,5.379956587531876 -19.625910057849257,9.741267283036708 -43.83569680962643,9.741267283036708 c-24.20977482369965,0 -43.83568488154891,-4.361298767427312 -43.83568488154891,-9.741267283036708 m0,0 l0,0 c0,-5.379944659454358 19.625910057849257,-9.741255354959188 43.83568488154891,-9.741255354959188 c24.209786751777166,0 43.83569680962643,4.361310695504831 43.83569680962643,9.741255354959188 l0,38.96508106022435 c0,5.379944659454358 -19.625910057849257,9.74124342688167 -43.83569680962643,9.74124342688167 c-24.20977482369965,0 -43.83568488154891,-4.361298767427312 -43.83568488154891,-9.74124342688167 l0,-38.96508106022435 z" id="svg_69" stroke="#000000" stroke-opacity="1" fill-opacity="1"/>
    </g>
    <g id="svg_58" stroke="#000000" stroke-width="3" stroke-opacity="1" fill="#ffffff" fill-opacity="1" class="selected">
     <rect fill="#ffffff" stroke-width="3" stroke-dasharray="null" stroke-linejoin="null" stroke-linecap="null" x="44.97359848022461" y="342.1845703125" width="48.35007858276367" height="83.5615463256836" id="svg_67" stroke="#000000" transform="matrix(1.1928077518788818,0,0,1.1928077518788818,-19.41596945080308,-34.44377496327495) " stroke-opacity="1" fill-opacity="1"/>
     <line fill="none" stroke-width="3" stroke-dasharray="null" stroke-linejoin="null" stroke-linecap="null" x1="39.87074661254883" y1="393.7765808105469" x2="71.2394790649414" y2="393.7765808105469" id="svg_66" stroke="#000000" points="null" d="null"/>
     <line fill="none" stroke-width="3" stroke-dasharray="null" stroke-linejoin="null" stroke-linecap="null" x1="38.617000579833984" y1="415.0903015136719" x2="77.48820495605469" y2="415.0903015136719" id="svg_65" stroke="#000000" points="null" d="null"/>
     <line fill="none" stroke-width="3" stroke-dasharray="null" stroke-linejoin="null" stroke-linecap="null" x1="39.86821746826172" y1="425.74713134765625" x2="78.73942565917969" y2="425.74713134765625" id="svg_64" stroke="#000000" points="null" d="null"/>
     <line fill="none" stroke-width="3" stroke-dasharray="null" stroke-linejoin="null" stroke-linecap="null" x1="42.37571334838867" y1="435.777099609375" x2="81.24691772460938" y2="435.777099609375" id="svg_63" stroke="#000000" points="null" d="null"/>
     <line fill="none" stroke-width="3" stroke-dasharray="null" stroke-linejoin="null" stroke-linecap="null" x1="44.25633239746094" y1="447.06085205078125" x2="83.1275405883789" y2="447.06085205078125" id="svg_62" stroke="#000000" points="null" d="null"/>
     <line fill="none" stroke-width="3" stroke-dasharray="null" stroke-linejoin="null" stroke-linecap="null" x1="47.39070129394531" y1="458.9714050292969" x2="86.26190185546875" y2="458.9714050292969" id="svg_61" stroke="#000000" points="null" d="null"/>
     <rect fill="#ffffff" stroke-width="3" stroke-dasharray="null" stroke-linejoin="null" stroke-linecap="null" x="81.76170349121094" y="355.32318115234375" width="7.357621192932129" height="7.357621192932129" id="svg_60" stroke="#000000" transform="matrix(1.1928077518788818,0,0,1.1928077518788818,-19.41596945080308,-34.44377496327495) " stroke-opacity="1" fill-opacity="1"/>
     <path fill="#ffffff" stroke-width="3" stroke-dasharray="null" stroke-linejoin="null" stroke-linecap="null" d="m113.89091281065369,362.2194820366071 l-1.3980183975121245,-4.893052463214917 c0.40970560661535843,-0.3593810475635883 0.7942429696660723,-0.7439303386918211 1.1572262966403346,-1.1554251569349978 l4.889462111881762,1.3980183975121245 c0.5157104315248346,-0.7511229694356507 0.9595541959989664,-1.5489562904348784 1.3566756808320026,-2.3773493460372426 l-3.6387912559592355,-3.5219915208952552 c0.17430499678206102,-0.5175115712301718 0.3252548177823335,-1.04401691290951 0.43306078239714685,-1.5866847996268074 l4.903835445291903,-1.229104891768556 c0.03593929756411071,-0.45282560684577994 0.07007745542288432,-0.9074523533968971 0.07007745542288432,-1.3710609423196618 s-0.03593929756411071,-0.916434195768545 -0.07007745542288432,-1.3692717306918436 l-4.903835445291903,-1.2290929636910375 c-0.10960710432015047,-0.5426798147948161 -0.2605449972429042,-1.0691851564741546 -0.43306078239714685,-1.5866967277043262 l3.6405923956645725,-3.5219915208952552 c-0.3989226245383733,-0.8265919158970276 -0.8427663890125052,-1.6262263766015923 -1.3584768205373396,-2.377337417959724 l-4.889462111881762,1.3962172578067875 c-0.3611821872689255,-0.40970560661535843 -0.7475206900249767,-0.7942548977435913 -1.1572262966403346,-1.1554370850125166 l1.3980183975121245,-4.8912513235095805 c-0.7511229694356507,-0.5139212198970163 -1.5507574301402154,-0.9595661240764852 -2.379138557665061,-1.3566876089095212 l-3.5219915208952552,3.6405923956645725 c-0.5157223596023535,-0.17430499678206102 -1.04401691290951,-0.3234536780769964 -1.5866967277043262,-0.43306078239714685 l-1.227303752063219,-4.90562465691972 c-0.45462674655111707,-0.03415008593629239 -0.9074523533968971,-0.0700893835004031 -1.3710609423196618,-0.0700893835004031 s-0.916434195768545,0.03593929756411071 -1.3692598026143248,0.0700893835004031 l-1.229104891768556,4.90562465691972 c-0.5426798147948161,0.10960710432015047 -1.0691851564741546,0.2587557856150859 -1.5866967277043262,0.43306078239714685 l-3.5219915208952552,-3.6405923956645725 c-0.8265919158970276,0.40251297587152873 -1.624425236896255,0.8463567403456606 -2.3755482063319056,1.362079099948014 l1.3980183975121245,4.8912513235095805 c-0.40970560661535843,0.35939297564110717 -0.7960441093714095,0.7457314783971583 -1.1554251569349978,1.1536359453071794 l-4.891263251587099,-1.3980183975121245 c-0.5157223596023535,0.7511229694356507 -0.9595541959989664,1.5507574301402154 -1.3566756808320026,2.379138557665061 l3.640580467587054,3.5219915208952552 c-0.1725038570767239,0.5175234993076906 -0.3234417499994776,1.04401691290951 -0.43306078239714685,1.5866967277043262 l-4.90562465691972,1.229104891768556 c-0.03415008593629239,0.45282560684577994 -0.0700893835004031,0.9074523533968971 -0.0700893835004031,1.3692598026143248 s0.03593929756411071,0.916434195768545 0.0700893835004031,1.3710609423196618 l4.90562465691972,1.229104891768556 c0.10961903239766926,0.5426678867172973 0.260556925320423,1.0691732283966358 0.43306078239714685,1.5866967277043262 l-3.640580467587054,3.5219795928177366 c0.39712148483303616,0.8265919158970276 0.8409533212296494,1.6262263766015923 1.3566756808320026,2.3773493460372426 l4.891263251587099,-1.3980183975121245 c0.3593810475635883,0.4115067463206955 0.7457195503196394,0.7942429696660723 1.1554251569349978,1.1554370850125166 l-1.3980183975121245,4.893052463214917 c0.7511229694356507,0.5139212198970163 1.5507574301402154,0.9577649843711482 2.3773493460372426,1.3566756808320026 l3.5219915208952552,-3.640580467587054 c0.5175115712301718,0.1742930687045422 1.04401691290951,0.32524288970481474 1.5866847996268074,0.43306078239714685 l1.229104891768556,4.903823517214383 c0.45282560684577994,0.03593929756411071 0.9074523533968971,0.0700893835004031 1.3710609423196618,0.0700893835004031 s0.916434195768545,-0.03593929756411071 1.3710609423196618,-0.0700893835004031 l1.227303752063219,-4.903823517214383 c0.5426798147948161,-0.10961903239766926 1.070974368101973,-0.260556925320423 1.5866967277043262,-0.43306078239714685 l3.5219915208952552,3.640580467587054 c0.8247907761916905,-0.40251297587152873 1.624425236896255,-0.8463567403456606 2.3755482063319056,-1.3602779602426769 zm-10.084390360942187,-8.627077490084163 c-3.3728547676778384,0 -6.107784021573333,-2.734929253895494 -6.107784021573333,-6.1077720934958135 s2.734929253895494,-6.1059828818679955 6.107784021573333,-6.1059828818679955 s6.105970953790477,2.7331281141901567 6.105970953790477,6.1059828818679955 s-2.7331281141901567,6.1077720934958135 -6.105970953790477,6.1077720934958135 zm27.838093227597387,12.767217772235611 c0.0341381578587736,-0.9829212998582738 -0.10781789269233215,-1.9838182125373625 -0.4132959579485138,-2.972131003434128 l2.235393295486137,-3.185965649113456 c-0.33782701148713695,-0.6289198152556591 -0.7187740232046954,-1.2255026123578818 -1.1518348056018424,-1.768182427152698 l-3.8130962527412966,0.7996344607045649 c-0.7690866541789468,-0.6540761307427848 -1.6442019894224071,-1.1644069993066457 -2.580401009639585,-1.5291914659862453 l-1.0979198952169167,-3.7358261665745824 c-0.6936177077175698,-0.12219122610247266 -1.3962291858843061,-0.18867833019220154 -2.107810578345172,-0.19046754182001985 l-1.7502068143318832,3.4788595925873147 c-0.5013490261922129,0.09703491061534704 -1.0026980523844258,0.23000911879480482 -1.4950533081274717,0.4186874489870063 c-0.46181937729494676,0.17609420840987933 -0.8930790199867565,0.39532034512769915 -1.30637497793527,0.6343232343716706 l-3.6046411700229433,-1.4716981323456833 c-0.5336979724231681,0.4708012196665947 -1.0206617371277218,0.9793309485251184 -1.460915150268698,1.5309926056915824 l1.6298167279347477,3.536364854305396 c-0.4653978005505834,0.8894767405760823 -0.7852611272944243,1.847253653024749 -0.9326086688840225,2.848138637626319 l-3.397999155087446,1.904746986665311 c0.0341381578587736,0.6972199871282441 0.1365645595126132,1.394428046178969 0.29469508317919657,2.0934372449350316 l3.7807473065103414,0.9326086688840225 c0.41509709765385094,0.9415905112556705 0.9721502458588075,1.784344972190657 1.6459912010502253,2.503130923472871 l-0.6325101665888146,3.8418429195615773 c0.5750168329482526,0.4132959579485138 1.1859729634606158,0.7690866541789468 1.8202842697547676,1.0781550707682837 l3.081750035831798,-2.3719459269212315 c0.9631564754096407,0.2533642945765933 1.97123409075504,0.35039920519194034 2.9865043368442685,0.26953876769207097 l2.6091476764598664,2.887668286523585 c0.3593810475635883,-0.1024264016538396 0.7169728834993583,-0.21203350597399007 1.070974368101973,-0.3468088538587849 c0.31445990762782955,-0.11860087476931726 0.6109561305123632,-0.2587557856150859 0.9074523533968971,-0.4007118361661916 l0.06648710408972888,-3.8903663389080103 c0.8175981454478609,-0.6091549908070263 1.5148062044985862,-1.3423142754993809 2.0700582129982057,-2.1671050516910713 l3.883173708164181,-0.24078017279427108 c0.2731410471027452,-0.6451062164486556 0.5013490261922129,-1.3153568203069181 0.6612806895641333,-2.0035830369859955 l-2.9990884586265913,-2.483366099024238 zm-7.480634175520813,3.60644230972828 c-2.1581232093194234,0.8230015645638723 -4.573201064548595,-0.2587557856150859 -5.397991840740286,-2.4168670668569905 s0.2569665739872675,-4.5750022042539324 2.415077855229172,-5.399792980445622 c2.1581232093194234,-0.8229896364863534 4.57679141588175,0.2587557856150859 5.401582192073441,2.4168789949345086 c0.8230015645638723,2.1581112812419048 -0.260556925320423,4.574990276176414 -2.418668206562327,5.3997810523681045 z" id="svg_59" stroke="#000000" stroke-opacity="1" fill-opacity="1"/>
    </g>
    <g id="svg_54" stroke="#000000" stroke-width="3" stroke-opacity="1" fill="#ffffff" fill-opacity="1" class="selected">
     <path fill="#ffffff" stroke-width="3" stroke-dasharray="null" stroke-linejoin="null" stroke-linecap="null" d="m84.13858977476355,289.9111421315388 c0,2.680835422347787 -9.779604124182095,4.854071505883515 -21.843339668592098,4.854071505883515 m21.843339668592098,-4.854071505883515 l0,0 c0,2.680835422347787 -9.779604124182095,4.854071505883515 -21.843339668592098,4.854071505883515 c-12.063747472487522,0 -21.843339668592098,-2.1732360835357287 -21.843339668592098,-4.854071505883515 m0,0 l0,0 c0,-2.680823494270268 9.779592196104577,-4.854071505883515 21.843339668592098,-4.854071505883515 c12.063735544410003,0 21.843339668592098,2.1732480116132473 21.843339668592098,4.854071505883515 l0,19.4163098796891 c0,2.680823494270268 -9.779604124182095,4.854059577805997 -21.843339668592098,4.854059577805997 c-12.063747472487522,0 -21.843339668592098,-2.1732360835357287 -21.843339668592098,-4.854059577805997 l0,-19.4163098796891 z" id="svg_57" stroke="#000000" stroke-opacity="1" fill-opacity="1"/>
     <path fill="#ffffff" stroke-width="3" stroke-dasharray="null" stroke-linejoin="null" stroke-linecap="null" d="m84.28674842562442,274.9522713240784 c0,2.680835422347787 -9.779592196104577,4.854071505883515 -21.843339668592098,4.854071505883515 m21.843339668592098,-4.854071505883515 l0,0 c0,2.680835422347787 -9.779592196104577,4.854071505883515 -21.843339668592098,4.854071505883515 c-12.063735544410003,0 -21.843327740514578,-2.1732360835357287 -21.843327740514578,-4.854071505883515 m0,0 l0,0 c0,-2.680823494270268 9.779592196104577,-4.854071505883515 21.843327740514578,-4.854071505883515 c12.063747472487522,0 21.843339668592098,2.1732480116132473 21.843339668592098,4.854071505883515 l0,19.4163098796891 c0,2.680823494270268 -9.779592196104577,4.854059577805997 -21.843339668592098,4.854059577805997 c-12.063735544410003,0 -21.843327740514578,-2.1732360835357287 -21.843327740514578,-4.854059577805997 l0,-19.4163098796891 z" id="svg_56" stroke="#000000" stroke-opacity="1" fill-opacity="1"/>
     <path fill="#ffffff" stroke-width="3" stroke-dasharray="null" stroke-linejoin="null" stroke-linecap="null" d="m84.28674842562442,256.52660021040225 c0,2.680835422347787 -9.779592196104577,4.854071505883515 -21.843339668592098,4.854071505883515 m21.843339668592098,-4.854071505883515 l0,0 c0,2.680835422347787 -9.779592196104577,4.854071505883515 -21.843339668592098,4.854071505883515 c-12.063735544410003,0 -21.843327740514578,-2.1732360835357287 -21.843327740514578,-4.854071505883515 m0,0 l0,0 c0,-2.680823494270268 9.779592196104577,-4.854071505883515 21.843327740514578,-4.854071505883515 c12.063747472487522,0 21.843339668592098,2.1732480116132473 21.843339668592098,4.854071505883515 l0,19.4163098796891 c0,2.680823494270268 -9.779592196104577,4.854059577805997 -21.843339668592098,4.854059577805997 c-12.063735544410003,0 -21.843327740514578,-2.1732360835357287 -21.843327740514578,-4.854059577805997 l0,-19.4163098796891 z" id="svg_55" stroke="#000000" stroke-opacity="1" fill-opacity="1"/>
    </g>
    <line fill="none" stroke-width="3" stroke-dasharray="null" stroke-linejoin="null" stroke-linecap="null" x1="59.779876708984375" y1="325.77862548828125" x2="59.779876708984375" y2="363.948486328125" id="svg_53" stroke="#ffffff" points="null" d="null" class="selected"/>
    <path fill="#ffffff" stroke="#000000" stroke-width="3" stroke-dasharray="null" stroke-linejoin="null" stroke-linecap="null" d="m134.0440558229109,269.57311391774033 l0,0 c0,-4.858198620705017 3.84605353092571,-8.796551615471115 8.590410579791406,-8.796551615471115 l3.904727744240632,0 l0,0 l18.742707486048058,0 l35.14257355432073,0 c2.2783224464762584,0 4.4633196144455125,0.9267758389773348 6.074337692210649,2.5764528159808657 c1.6110061496876178,1.6496769770035313 2.516072887580757,3.887109973745381 2.516072887580757,6.220098799490248 l0,21.991390966755304 l0,0 l0,13.194827423206672 l0,0 c0,4.858198620705017 -3.84605353092571,8.796551615471115 -8.590410579791406,8.796551615471115 l-35.14257355432073,0 l-24.48502714052322,22.367590603620386 l5.742319654475162,-22.367590603620386 l-3.904727744240632,0 c-4.744357048865695,0 -8.590410579791406,-3.938352994766098 -8.590410579791406,-8.796551615471115 l0,0 l0,-13.194827423206672 l0,0 l0,-21.991390966755304 z" id="svg_52" stroke-opacity="1" fill-opacity="1" class="selected"/>
    <g id="svg_42" stroke="#000000" stroke-width="3" stroke-opacity="1" fill="#ffffff" fill-opacity="1" class="selected">
     <rect fill="#ffffff" stroke-width="3" stroke-dasharray="null" stroke-linejoin="null" stroke-linecap="null" x="400.3027038574219" y="174.05975341796875" width="76.4927749633789" height="132.19947814941406" id="svg_51" stroke="#000000" transform="matrix(1.1928077518788818,0,0,1.1928077518788818,-19.41596945080308,-34.44377496327495) " stroke-opacity="1" fill-opacity="1"/>
     <line fill="none" stroke-width="3" stroke-dasharray="null" stroke-linejoin="null" stroke-linecap="null" x1="466.9939880371094" y1="204.912109375" x2="516.6212158203125" y2="204.912109375" id="svg_50" stroke="#000000" points="null" d="null"/>
     <line fill="none" stroke-width="3" stroke-dasharray="null" stroke-linejoin="null" stroke-linecap="null" x1="465.0104675292969" y1="238.6316680908203" x2="526.507080078125" y2="238.6316680908203" id="svg_49" stroke="#000000" points="null" d="null"/>
     <line fill="none" stroke-width="3" stroke-dasharray="null" stroke-linejoin="null" stroke-linecap="null" x1="466.989990234375" y1="255.491455078125" x2="528.486572265625" y2="255.491455078125" id="svg_48" stroke="#000000" points="null" d="null"/>
     <line fill="none" stroke-width="3" stroke-dasharray="null" stroke-linejoin="null" stroke-linecap="null" x1="470.9570007324219" y1="271.3594665527344" x2="532.45361328125" y2="271.3594665527344" id="svg_47" stroke="#000000" points="null" d="null"/>
     <line fill="none" stroke-width="3" stroke-dasharray="null" stroke-linejoin="null" stroke-linecap="null" x1="473.9322509765625" y1="289.21099853515625" x2="535.4288330078125" y2="289.21099853515625" id="svg_46" stroke="#000000" points="null" d="null"/>
     <line fill="none" stroke-width="3" stroke-dasharray="null" stroke-linejoin="null" stroke-linecap="null" x1="478.8910217285156" y1="308.0542907714844" x2="540.3876342773438" y2="308.0542907714844" id="svg_45" stroke="#000000" points="null" d="null"/>
     <rect fill="#ffffff" stroke-width="3" stroke-dasharray="null" stroke-linejoin="null" stroke-linecap="null" x="458.50372314453125" y="194.8458251953125" width="11.640205383300781" height="11.640205383300781" id="svg_44" stroke="#000000" transform="matrix(1.1928077518788818,0,0,1.1928077518788818,-19.41596945080308,-34.44377496327495) " stroke-opacity="1" fill-opacity="1"/>
     <path fill="#ffffff" stroke-width="3" stroke-dasharray="null" stroke-linejoin="null" stroke-linecap="null" d="m584.0983885625956,154.98683641468926 l-2.211739917766379,-7.741095676221086 c0.6481717323709844,-0.5685756710881066 1.2565394700617705,-1.1769553368564114 1.8308048341263394,-1.8279659516768676 l7.735417911322142,2.211751845843898 c0.8158924303626741,-1.1883227947318171 1.5180864258162527,-2.45055195777005 2.1463501968083785,-3.761113690914415 l-5.756788412505453,-5.571998635584377 c0.2757652241568787,-0.8187432408896645 0.5145653360830309,-1.6517047501817255 0.685136844601711,-2.510240057674069 l7.758164755150473,-1.9445271251904719 c0.05684921745454751,-0.7163884077009377 0.1108595524596233,-1.4356395540063847 0.1108595524596233,-2.169097040636709 s-0.05684921745454751,-1.4498578224087808 -0.1108595524596233,-2.166258158187237 l-7.758164755150473,-1.9445151971129533 c-0.17342231904567065,-0.8585472355698629 -0.4122224309718228,-1.6914968167844047 -0.685136844601711,-2.510240057674069 l5.759639223032444,-5.5720105636618955 c-0.6311145815191164,-1.3077109226173744 -1.3333085769726953,-2.572778968105079 -2.1492010073353693,-3.7611017628368963 l-7.735417911322142,2.2089010353169076 c-0.5714145535375783,-0.6481717323709844 -1.1826331017553549,-1.2565394700617705 -1.8308048341263394,-1.8279540235993488 l2.211739917766379,-7.738268721849133 c-1.1883108666542983,-0.8130535479132024 -2.4533908402195217,-1.5180864258162527 -3.763940645286368,-2.1463501968083785 l-5.5720105636618955,5.759627294954925 c-0.8158924303626741,-0.2757532960793599 -1.6516928221042064,-0.5117145255560404 -2.510240057674069,-0.6851249165241922 l-1.9416763146634817,-7.761003637599944 c-0.7192392182279282,-0.05402226308259457 -1.4356395540063847,-0.11087148053714209 -2.169097040636709,-0.11087148053714209 s-1.4498578224087808,0.05684921745454751 -2.166258158187237,0.11087148053714209 l-1.9445151971129533,7.761003637599944 c-0.8585472355698629,0.17341039096815183 -1.6915087448619235,0.4093716204448323 -2.510251985751588,0.6851249165241922 l-5.571998635584377,-5.759627294954925 c-1.3077109226173744,0.6367923464180598 -2.569940085655607,1.3389863418716386 -3.7582628803874245,2.1548787722343126 l2.211751845843898,7.738268721849133 c-0.6481717323709844,0.5685756710881066 -1.259390280588761,1.1797822912283644 -1.8279659516768676,1.825115141149877 l-7.738256793771614,-2.211739917766379 c-0.8159043584401929,1.1883108666542983 -1.5180864258162527,2.4533789121420027 -2.1463621248858975,3.763940645286368 l5.759639223032444,5.571998635584377 c-0.27291441362988816,0.8187432408896645 -0.5117145255560404,1.6517047501817255 -0.685136844601711,2.510251985751588 l-7.761003637599944,1.9445151971129533 c-0.05401033500507577,0.7164003357784565 -0.11087148053714209,1.4356395540063847 -0.11087148053714209,2.166258158187237 s0.05686114553206631,1.4498578224087808 0.11087148053714209,2.169097040636709 l7.761003637599944,1.9445151971129533 c0.17342231904567065,0.8585472355698629 0.4122224309718228,1.6915087448619235 0.685136844601711,2.510251985751588 l-5.759639223032444,5.571998635584377 c0.6282756990696446,1.3077228506948932 1.3304577664457047,2.572790896182598 2.1463621248858975,3.7611017628368963 l7.738256793771614,-2.211739917766379 c0.5685756710881066,0.6510106148204562 1.1797942193058832,1.2565394700617705 1.8279659516768676,1.8279540235993488 l-2.211751845843898,7.7411076042986044 c1.1883227947318171,0.8130654759907212 2.4533908402195217,1.5152475433667811 3.7611017628368963,2.1463621248858975 l5.5720105636618955,-5.759627294954925 c0.8187432408896645,0.2757532960793599 1.6517047501817255,0.5145534080055121 2.510240057674069,0.6851249165241922 l1.9445151971129533,7.758164755150473 c0.7164003357784565,0.05684921745454751 1.4356395540063847,0.11087148053714209 2.169108968714228,0.11087148053714209 s1.4498578224087808,-0.05686114553206631 2.169097040636709,-0.11087148053714209 l1.9416763146634817,-7.758164755150473 c0.858535307492344,-0.17341039096815183 1.6943356992338765,-0.4122224309718228 2.510240057674069,-0.6851249165241922 l5.5720105636618955,5.759627294954925 c1.3048601120903838,-0.6368042744955786 2.569940085655607,-1.3389863418716386 3.7582509523099055,-2.1520518178623598 zm-15.954125739473051,-13.648559563943879 c-5.336049334185215,0 -9.662875957583227,-4.3268385514755305 -9.662875957583227,-9.662887885660746 s4.326826623398012,-9.660025147056238 9.662875957583227,-9.660025147056238 s9.660037075133756,4.3239877409485405 9.660037075133756,9.660025147056238 s-4.3239877409485405,9.662887885660746 -9.660037075133756,9.662887885660746 zm44.04157542760072,20.198505491061194 c0.05401033500507577,-1.5550396099694606 -0.1705715085186801,-3.138515756743714 -0.6538614253474466,-4.702083942139108 l3.5365199193131405,-5.040388076726996 c-0.5344613693843706,-0.9950044423848069 -1.1371394140986943,-1.938825504136491 -1.8222643306228863,-2.7973727397063537 l-6.032553636662332,1.2650680454877046 c-1.216747403459091,-1.0347965089874864 -2.6012155049098715,-1.842172292001745 -4.082348746572917,-2.4192765385157857 l-1.7369785763635464,-5.910302770172265 c-1.097347347496015,-0.19330642426949163 -2.2089010353169076,-0.29850013990769014 -3.334672991540196,-0.30133902235716187 l-2.7689481309790795,5.503770032176905 c-0.7931575146118626,0.1535143576668121 -1.586315029223725,0.36388986086569053 -2.36526620351071,0.6623900007733806 c-0.7306066761033339,0.27860410660635043 -1.4128927101780542,0.625424888542654 -2.066754135525501,1.003533017810741 l-5.702778077500377,-2.3283010912799833 c-0.8443289671674665,0.7448249445057302 -1.6147396379509988,1.5493499169929983 -2.3112439404281155,2.4221154209652576 l2.578468661081541,5.594745479412707 c-0.7362963690797962,1.407214945279111 -1.242321201659374,2.922462488645892 -1.475443548686583,4.505926707342626 l-5.375841400787895,3.0134379358816945 c0.05401033500507577,1.1030251123949584 0.21605326809782188,2.2060502247899167 0.46623276597689867,3.3119261477118656 l5.981370256029209,1.475443548686583 c0.6567003077969183,1.489661817088979 1.5379824591175926,2.8229584659841556 2.6040543873593434,3.960109808160369 l-1.0006822072837505,6.078023468163955 c0.909718688125467,0.6538614253474466 1.876286593705481,1.216747403459091 2.879819611516222,1.705715085186801 l4.875506261184778,-3.752573187410962 c1.5237641907151964,0.4008430450188983 3.118607795364855,0.5543574026857103 4.7248307859674386,0.42642877129670026 l4.127830506152058,4.568477545851155 c0.5685756710881066,-0.1620429330927461 1.1343005316492227,-0.3354533240608979 1.6943356992338765,-0.548667709709248 c0.4975081852311628,-0.18762865937054812 0.9665798336575331,-0.4093716204448323 1.4356514820839033,-0.633953463968588 l0.10518178756067982,-6.154792575074879 c1.2935045822924969,-0.9637290231305427 2.3965296946874552,-2.123615281057567 3.2749729635586577,-3.42848732122547 l6.143425117199474,-0.38094701171755857 c0.43210653619564376,-1.020590168662609 0.7931575146118626,-2.0809724039278974 1.0461639668628921,-3.169791175997978 l-4.744726819268778,-3.9288343889061044 zm-11.834823808746927,5.705628888027368 c-3.4142690528230735,1.3020212296409124 -7.235070843641507,-0.4093716204448323 -8.539942883809411,-3.8236526013454246 s0.40652080991784184,-7.237921654168498 3.8208017908184337,-8.542793694336401 c3.4142690528230735,-1.3020212296409124 7.24076053661797,0.4093716204448323 8.545632576785872,3.8236526013454246 c1.302033157718431,3.4142690528230735 -0.4122105028943041,7.2379097260909795 -3.8264914837948965,8.542793694336401 z" id="svg_43" stroke="#000000" stroke-opacity="1" fill-opacity="1"/>
    </g>
    <line fill="none" stroke="#ffffff" stroke-width="3" stroke-dasharray="null" stroke-linejoin="null" stroke-linecap="null" x1="216.03770446777344" y1="279.2591247558594" x2="447.4423828125" y2="254.21017456054688" id="svg_41" points="null" d="null" class="selected"/>
    <path fill="#ffffff" stroke-width="3" stroke-dasharray="null" stroke-linejoin="null" stroke-linecap="null" d="m451.1716899158952,90.53690482823933 l0,0 c0,-4.241278451433258 -3.6793944318331926,-7.679522940069098 -8.218159136585044,-7.679522940069098 l-3.7355398927141317,0 l0,0 l-17.930548543948763,0 l-33.61976360980704,0 c-2.179605676930762,0 -4.269929693633389,0.8090934261769643 -5.811132733681055,2.2492775777180074 c-1.5412030400476657,1.4401960796185618 -2.4070383309815084,3.393514197940381 -2.4070383309815084,5.43024536235109 l0,19.198825242289026 l0,0 l0,11.519290374142406 l0,0 c0,4.241290379510778 3.6793944318331926,7.679534868146617 8.218159136585044,7.679534868146617 l33.61977553788456,0 l23.424048501381993,19.527252928691357 l-5.493499957433228,-19.527252928691357 l3.7355279646366126,0 c4.538776632829371,0 8.218171064662563,-3.4382444886358394 8.218171064662563,-7.679534868146617 l0,0 l0,-11.519290374142406 l0,0 l0,-19.198825242289026 z" id="svg_40" stroke="#000000" stroke-opacity="1" fill-opacity="1" class="selected"/>
    <line fill="none" stroke="#ffffff" stroke-width="3" stroke-dasharray="null" stroke-linejoin="null" stroke-linecap="null" x1="133.7339630126953" y1="75.28900146484375" x2="354.40338134765625" y2="114.65166473388672" id="svg_39" points="null" d="null" class="selected"/>
   
  
  <g id="svg_38"/>
 </g>
</svg>