<svg xmlns="http://www.w3.org/2000/svg" xmlns:svg="http://www.w3.org/2000/svg" width="640" height="480"><rect id="backgroundrect" width="100%" height="100%" x="0" y="0" fill="none" stroke="none"/>
 <!-- Created with SVG-edit - http://svg-edit.googlecode.com/ -->
 <g class="currentLayer">
  <title>Layer 1</title>
  <g stroke="null" id="svg_21" class="selected" stroke-width="3" fill="#ffffff" fill-opacity="1">
   <rect stroke="#000000" id="svg_2" height="133.19210815429688" width="77.06713104248047" y="95.4773178100586" x="84.908203125" stroke-linecap="null" stroke-linejoin="null" stroke-dasharray="null" stroke-width="3" fill="#ffffff" fill-opacity="1"/>
   <line stroke="#000000" id="svg_3" y2="122.28327178955078" x2="134.3651885986328" y1="122.28327178955078" x1="92.44738006591797" stroke-linecap="null" stroke-linejoin="null" stroke-dasharray="null" stroke-width="3" fill="none"/>
   <line stroke="#000000" id="svg_4" y2="150.7646026611328" x2="142.71530151367188" y1="150.7646026611328" x1="90.77201080322266" stroke-linecap="null" stroke-linejoin="null" stroke-dasharray="null" stroke-width="3" fill="none"/>
   <line stroke="#000000" id="svg_5" y2="165.00526428222656" x2="144.38729858398438" y1="165.00526428222656" x1="92.44400024414062" stroke-linecap="null" stroke-linejoin="null" stroke-dasharray="null" stroke-width="3" fill="none"/>
   <line stroke="#000000" id="svg_6" y2="178.4082489013672" x2="147.73805236816406" y1="178.4082489013672" x1="95.79474639892578" stroke-linecap="null" stroke-linejoin="null" stroke-dasharray="null" stroke-width="3" fill="none"/>
   <line stroke="#000000" id="svg_7" y2="193.48660278320312" x2="150.25111389160156" y1="193.48660278320312" x1="98.30780792236328" stroke-linecap="null" stroke-linejoin="null" stroke-dasharray="null" stroke-width="3" fill="none"/>
   <line stroke="#000000" id="svg_8" y2="209.4026336669922" x2="154.43954467773438" y1="209.4026336669922" x1="102.4962387084961" stroke-linecap="null" stroke-linejoin="null" stroke-dasharray="null" stroke-width="3" fill="none"/>
   <rect stroke="#000000" id="svg_9" height="11.727606773376465" width="11.727606773376465" y="116.41947174072266" x="143.54623413085938" stroke-linecap="null" stroke-linejoin="null" stroke-dasharray="null" stroke-width="3" fill="#ffffff" fill-opacity="1"/>
   <path stroke="#000000" id="svg_10" d="m191.359974,80.113748l-1.868157,-6.538548c0.547481,-0.480245 1.061343,-0.994109 1.546392,-1.543991l6.533745,1.868157c0.689153,-1.003714 1.282256,-2.06986 1.812928,-3.176827l-4.862489,-4.706409c0.232919,-0.691554 0.434622,-1.395114 0.578696,-2.120286l6.552955,-1.642441c0.048025,-0.605109 0.093647,-1.21262 0.093647,-1.832138s-0.048025,-1.224627 -0.093647,-1.829737l-6.552955,-1.64244c-0.146475,-0.725172 -0.348178,-1.428732 -0.578696,-2.120286l4.86489,-4.70641c-0.533073,-1.104565 -1.126176,-2.173112 -1.815329,-3.176826l-6.533745,1.865755c-0.482647,-0.54748 -0.998911,-1.061343 -1.546392,-1.543991l1.868157,-6.536146c-1.003714,-0.686752 -2.072261,-1.282257 -3.179228,-1.812929l-4.70641,4.864891c-0.689153,-0.232919 -1.395114,-0.432221 -2.120286,-0.578696l-1.64004,-6.555356c-0.607511,-0.045624 -1.21262,-0.093648 -1.832138,-0.093648s-1.224627,0.048025 -1.829737,0.093648l-1.64244,6.555356c-0.725172,0.146475 -1.428732,0.345777 -2.120286,0.578696l-4.70641,-4.864891c-1.104565,0.537876 -2.170711,1.130979 -3.174425,1.820132l1.868157,6.536147c-0.547481,0.480245 -1.063745,0.99651 -1.543991,1.541589l-6.536146,-1.868157c-0.689154,1.003714 -1.282257,2.072261 -1.812929,3.179228l4.864891,4.70641c-0.230518,0.691554 -0.432221,1.395114 -0.578696,2.120286l-6.555357,1.64244c-0.045623,0.60511 -0.093647,1.212621 -0.093647,1.829737s0.048025,1.224627 0.093647,1.832138l6.555357,1.642441c0.146475,0.725172 0.348178,1.428732 0.578696,2.120286l-4.864891,4.706409c0.530672,1.104565 1.123775,2.173113 1.812929,3.176827l6.536146,-1.868157c0.480245,0.549882 0.99651,1.061343 1.543991,1.543991l-1.868157,6.538548c1.003714,0.686752 2.072261,1.279856 3.176827,1.812928l4.706409,-4.86489c0.691554,0.232919 1.395114,0.434623 2.120286,0.578696l1.642441,6.552955c0.605109,0.048025 1.21262,0.093647 1.832138,0.093647s1.224627,-0.048025 1.832138,-0.093647l1.64004,-6.552955c0.725172,-0.146475 1.431133,-0.348178 2.120286,-0.578696l4.70641,4.86489c1.102164,-0.537875 2.170711,-1.130979 3.174425,-1.81773zm-13.4757,-11.528303c-4.507108,0 -8.161779,-3.654671 -8.161779,-8.161779s3.654672,-8.159379 8.161779,-8.159379s8.159378,3.652271 8.159378,8.159379s-3.652271,8.161779 -8.159378,8.161779zm37.199846,17.060736c0.045624,-1.313473 -0.144074,-2.650958 -0.552282,-3.971634l2.98713,-4.25738c-0.451432,-0.84043 -0.960492,-1.637639 -1.539188,-2.36281l-5.095409,1.068547c-1.027726,-0.874048 -2.197125,-1.555996 -3.448166,-2.043446l-1.467151,-4.992157c-0.926875,-0.163283 -1.865755,-0.252129 -2.816642,-0.25453l-2.338797,4.648781c-0.669943,0.129666 -1.339887,0.307357 -1.997823,0.559486c-0.617116,0.23532 -1.193411,0.52827 -1.745694,0.847634l-4.816867,-1.966607c-0.713165,0.629122 -1.363899,1.30867 -1.9522,2.045848l2.177915,4.725619c-0.621918,1.188609 -1.049338,2.468464 -1.246238,3.805948l-4.540725,2.545304c0.045624,0.931677 0.182493,1.863354 0.393802,2.797432l5.052187,1.246238c0.554684,1.258244 1.299064,2.384421 2.199526,3.344913l-0.845233,5.133829c0.768394,0.552282 1.584812,1.027726 2.432446,1.440737l4.118109,-3.169623c1.287059,0.338573 2.634149,0.46824 3.990843,0.360185l3.486586,3.858776c0.480245,-0.13687 0.95809,-0.283345 1.431132,-0.463437c0.420215,-0.158481 0.816418,-0.345777 1.212621,-0.535474l0.088846,-5.198662c1.092559,-0.814017 2.024236,-1.793718 2.766216,-2.895883l5.189057,-0.321764c0.364987,-0.862041 0.669943,-1.7577 0.883653,-2.677371l-4.007652,-3.318499zm-9.996318,4.819267c-2.883876,1.099763 -6.111129,-0.345777 -7.213293,-3.229654s0.343376,-6.11353 3.227252,-7.215694c2.883876,-1.099764 6.115932,0.345777 7.218096,3.229653c1.099763,2.883877 -0.348178,6.11353 -3.232055,7.215695z" stroke-linecap="null" stroke-linejoin="null" stroke-dasharray="null" stroke-width="3" fill="#ffffff" fill-opacity="1"/>
  </g>
  <g id="svg_14" class="selected" stroke-width="3" fill="#ffffff" fill-opacity="1">
   <path id="svg_11" d="m611.500722,189.834005c0,4.510326 -16.45354,8.166668 -36.750012,8.166668m36.750012,-8.166668l0,0c0,4.510326 -16.45354,8.166668 -36.750012,8.166668c-20.296464,0 -36.75,-3.656335 -36.75,-8.166668m0,0l0,0c0,-4.510321 16.453536,-8.166665 36.75,-8.166665c20.296471,0 36.750012,3.656345 36.750012,8.166665l0,32.666684c0,4.510321 -16.45354,8.166653 -36.750012,8.166653c-20.296464,0 -36.75,-3.656332 -36.75,-8.166653l0,-32.666684z" stroke-linecap="null" stroke-linejoin="null" stroke-dasharray="null" stroke-width="3" stroke="#000000" fill="#ffffff" fill-opacity="1"/>
   <path id="svg_12" d="m611.750005,164.666664c0,4.510326 -16.453541,8.166668 -36.750012,8.166668m36.750012,-8.166668l0,0c0,4.510326 -16.453541,8.166668 -36.750012,8.166668c-20.296464,0 -36.75,-3.656335 -36.75,-8.166668m0,0l0,0c0,-4.510321 16.453536,-8.166666 36.75,-8.166666c20.296471,0 36.750012,3.656345 36.750012,8.166666l0,32.666684c0,4.510321 -16.453541,8.166653 -36.750012,8.166653c-20.296464,0 -36.75,-3.656332 -36.75,-8.166653l0,-32.666684z" stroke-linecap="null" stroke-linejoin="null" stroke-dasharray="null" stroke-width="3" stroke="#000000" fill="#ffffff" fill-opacity="1"/>
   <path id="svg_13" d="m611.750005,133.666664c0,4.510326 -16.453541,8.166668 -36.750012,8.166668m36.750012,-8.166668l0,0c0,4.510326 -16.453541,8.166668 -36.750012,8.166668c-20.296464,0 -36.75,-3.656335 -36.75,-8.166668m0,0l0,0c0,-4.510321 16.453536,-8.166666 36.75,-8.166666c20.296471,0 36.750012,3.656345 36.750012,8.166666l0,32.666684c0,4.510321 -16.453541,8.166653 -36.750012,8.166653c-20.296464,0 -36.75,-3.656332 -36.75,-8.166653l0,-32.666684z" stroke-linecap="null" stroke-linejoin="null" stroke-dasharray="null" stroke-width="3" stroke="#000000" fill="#ffffff" fill-opacity="1"/>
  </g>
  
   
   
   
   
   
   
   
   
   
  
  <g id="svg_36" stroke="null" class="selected" stroke-width="3" fill="#ffffff" fill-opacity="1">
   <rect id="svg_37" stroke="#000000" height="83.5615463256836" width="48.35007858276367" y="353.7023010253906" x="441.908203125" stroke-linecap="null" stroke-linejoin="null" stroke-dasharray="null" stroke-width="3" fill="#ffffff" fill-opacity="1"/>
   <line id="svg_38" stroke="#000000" y2="370.51971435546875" x2="472.93634033203125" y1="370.51971435546875" x1="446.63812255859375" stroke-linecap="null" stroke-linejoin="null" stroke-dasharray="null" stroke-width="3" fill="none"/>
   <line id="svg_39" stroke="#000000" y2="388.38824462890625" x2="478.1750183105469" y1="388.38824462890625" x1="445.5870361328125" stroke-linecap="null" stroke-linejoin="null" stroke-dasharray="null" stroke-width="3" fill="none"/>
   <line id="svg_40" stroke="#000000" y2="397.3224792480469" x2="479.2239990234375" y1="397.3224792480469" x1="446.635986328125" stroke-linecap="null" stroke-linejoin="null" stroke-dasharray="null" stroke-width="3" fill="none"/>
   <line id="svg_41" stroke="#000000" y2="405.731201171875" x2="481.326171875" y1="405.731201171875" x1="448.7381896972656" stroke-linecap="null" stroke-linejoin="null" stroke-dasharray="null" stroke-width="3" fill="none"/>
   <line id="svg_42" stroke="#000000" y2="415.1910095214844" x2="482.9028015136719" y1="415.1910095214844" x1="450.3148193359375" stroke-linecap="null" stroke-linejoin="null" stroke-dasharray="null" stroke-width="3" fill="none"/>
   <line id="svg_43" stroke="#000000" y2="425.17633056640625" x2="485.530517578125" y1="425.17633056640625" x1="452.9425354003906" stroke-linecap="null" stroke-linejoin="null" stroke-dasharray="null" stroke-width="3" fill="none"/>
   <rect id="svg_44" stroke="#000000" height="7.357621192932129" width="7.357621192932129" y="366.8409118652344" x="478.6963195800781" stroke-linecap="null" stroke-linejoin="null" stroke-dasharray="null" stroke-width="3" fill="#ffffff" fill-opacity="1"/>
   <path id="svg_45" stroke="#000000" d="m508.693519,344.063572l-1.172037,-4.102128c0.343477,-0.301295 0.665862,-0.623681 0.97017,-0.968663l4.099116,1.172037c0.432358,-0.629706 0.804457,-1.298581 1.137388,-1.993065l-3.05061,-2.952689c0.146127,-0.433865 0.272671,-0.875262 0.36306,-1.330217l4.111168,-1.030429c0.030129,-0.379631 0.058752,-0.760769 0.058752,-1.14944s-0.030129,-0.768301 -0.058752,-1.147933l-4.111168,-1.030428c-0.091895,-0.454955 -0.218439,-0.896352 -0.36306,-1.330216l3.052116,-2.95269c-0.334437,-0.692978 -0.706536,-1.363358 -1.138894,-1.993065l-4.099116,1.170531c-0.302801,-0.343476 -0.626693,-0.665862 -0.97017,-0.968663l1.172037,-4.100623c-0.629706,-0.430851 -1.300087,-0.804457 -1.994571,-1.137388l-2.95269,3.052117c-0.432358,-0.146128 -0.875261,-0.271166 -1.330217,-0.36306l-1.028922,-4.112674c-0.381137,-0.028624 -0.760768,-0.058753 -1.149439,-0.058753s-0.768301,0.030129 -1.147933,0.058753l-1.030428,4.112674c-0.454955,0.091894 -0.896353,0.216932 -1.330217,0.36306l-2.952689,-3.052117c-0.692978,0.337451 -1.361853,0.70955 -1.991559,1.141907l1.172037,4.100623c-0.343476,0.301295 -0.667369,0.625187 -0.968663,0.967156l-4.100622,-1.172036c-0.432359,0.629706 -0.804457,1.300087 -1.137388,1.994571l3.052116,2.952689c-0.144621,0.433865 -0.271165,0.875262 -0.36306,1.330217l-4.112674,1.030428c-0.028623,0.379632 -0.058753,0.76077 -0.058753,1.147934s0.03013,0.768302 0.058753,1.149439l4.112674,1.030429c0.091895,0.454955 0.218439,0.896352 0.36306,1.330217l-3.052116,2.952688c0.332931,0.692979 0.705029,1.363359 1.137388,1.993066l4.100622,-1.172037c0.301294,0.344982 0.625187,0.665861 0.968663,0.968663l-1.172037,4.102129c0.629706,0.430852 1.300087,0.80295 1.993066,1.137387l2.952688,-3.052115c0.433865,0.146127 0.875262,0.272671 1.330217,0.36306l1.030428,4.111167c0.379632,0.03013 0.760769,0.058753 1.14944,0.058753s0.768302,-0.03013 1.14944,-0.058753l1.028921,-4.111167c0.454956,-0.091895 0.897859,-0.21844 1.330217,-0.36306l2.95269,3.052115c0.691471,-0.337449 1.361852,-0.709549 1.991558,-1.140401zm-8.454332,-7.232581c-2.827652,0 -5.120506,-2.292854 -5.120506,-5.120506s2.292854,-5.118999 5.120506,-5.118999s5.118999,2.291347 5.118999,5.118999s-2.291348,5.120506 -5.118999,5.120506zm23.338296,10.703498c0.028623,-0.824041 -0.090388,-1.663147 -0.346489,-2.491708l1.874054,-2.670979c-0.283218,-0.527266 -0.60259,-1.027415 -0.96565,-1.48237l-3.196738,0.670381c-0.644771,-0.548357 -1.378424,-0.976195 -2.163297,-1.28201l-0.920455,-3.131959c-0.5815,-0.102441 -1.170531,-0.15818 -1.767094,-0.159687l-1.467306,2.916535c-0.420307,0.081349 -0.840613,0.192828 -1.253387,0.351008c-0.387164,0.147634 -0.748717,0.331424 -1.095206,0.531785l-3.021987,-1.233802c-0.447423,0.394696 -0.855678,0.821028 -1.224764,1.283516l1.366372,2.964741c-0.390177,0.745704 -0.658329,1.548656 -0.78186,2.387761l-2.848743,1.596863c0.028624,0.584511 0.114493,1.169024 0.247062,1.755042l3.169622,0.78186c0.347995,0.789392 0.815002,1.495929 1.37993,2.098519l-0.530279,3.220841c0.482072,0.346489 0.994273,0.644771 1.526058,0.903884l2.583604,-1.988545c0.80747,0.212412 1.652602,0.293762 2.503759,0.225971l2.187401,2.420904c0.301295,-0.085869 0.601083,-0.177764 0.897858,-0.29075c0.263633,-0.099427 0.512202,-0.216932 0.76077,-0.335943l0.05574,-3.261517c0.685445,-0.510695 1.269957,-1.125336 1.735457,-1.816808l3.255491,-0.201867c0.228984,-0.540824 0.420306,-1.102739 0.554382,-1.679719l-2.514305,-2.081947zm-6.271451,3.023494c-1.809276,0.689965 -3.833977,-0.216933 -4.525449,-2.026208s0.215426,-3.835483 2.024702,-4.526954c1.809275,-0.689966 3.836989,0.216932 4.52846,2.026207c0.689965,1.809275 -0.218438,3.835483 -2.027713,4.526955z" stroke-linecap="null" stroke-linejoin="null" stroke-dasharray="null" stroke-width="3" fill="#ffffff" fill-opacity="1"/>
  </g>
  <line stroke="#ffffff" id="svg_56" y2="343" x2="284" y1="249" x1="186" stroke-linecap="null" stroke-linejoin="null" stroke-dasharray="null" stroke-width="3" fill="none" class="selected"/>
  <line id="svg_57" y2="384" x2="434" y1="396" x1="355" stroke-linecap="null" stroke-linejoin="null" stroke-dasharray="null" stroke-width="3" stroke="#ffffff" fill="none" class="selected"/>
  <line id="svg_58" y2="230" x2="535" y1="344" x1="467" stroke-linecap="null" stroke-linejoin="null" stroke-dasharray="null" stroke-width="3" stroke="#ffffff" fill="none" class="selected"/>
  <line id="svg_59" y2="194" x2="529" y1="324" x1="380" stroke-linecap="null" stroke-linejoin="null" stroke-dasharray="null" stroke-width="3" stroke="#ffffff" fill="none" class="selected"/>
  <g stroke="null" id="svg_60" class="selected" stroke-width="3" fill="#ffffff" fill-opacity="1">
   <path stroke="#000000" id="svg_61" d="m140.750418,413.236413c0,2.247497 -8.198804,4.069453 -18.31254,4.069453m18.31254,-4.069453l0,0c0,2.247497 -8.198804,4.069453 -18.31254,4.069453c-10.113733,0 -18.312534,-1.821953 -18.312534,-4.069453m0,0l0,0c0,-2.247494 8.198801,-4.069452 18.312534,-4.069452c10.113737,0 18.31254,1.821958 18.31254,4.069452l0,16.277817c0,2.247494 -8.198804,4.069445 -18.31254,4.069445c-10.113733,0 -18.312534,-1.821951 -18.312534,-4.069445l0,-16.277817z" stroke-linecap="null" stroke-linejoin="null" stroke-dasharray="null" stroke-width="3" fill="#ffffff" fill-opacity="1"/>
   <path stroke="#000000" id="svg_62" d="m140.874636,400.69552c0,2.247497 -8.198804,4.069453 -18.31254,4.069453m18.31254,-4.069453l0,0c0,2.247497 -8.198804,4.069453 -18.31254,4.069453c-10.113733,0 -18.312534,-1.821953 -18.312534,-4.069453m0,0l0,0c0,-2.247494 8.198801,-4.069452 18.312534,-4.069452c10.113737,0 18.31254,1.821958 18.31254,4.069452l0,16.277817c0,2.247494 -8.198804,4.069445 -18.31254,4.069445c-10.113733,0 -18.312534,-1.821951 -18.312534,-4.069445l0,-16.277817z" stroke-linecap="null" stroke-linejoin="null" stroke-dasharray="null" stroke-width="3" fill="#ffffff" fill-opacity="1"/>
   <path stroke="#000000" id="svg_63" d="m140.874636,385.248212c0,2.247497 -8.198804,4.069453 -18.31254,4.069453m18.31254,-4.069453l0,0c0,2.247497 -8.198804,4.069453 -18.31254,4.069453c-10.113733,0 -18.312534,-1.821953 -18.312534,-4.069453m0,0l0,0c0,-2.247494 8.198801,-4.069452 18.312534,-4.069452c10.113737,0 18.31254,1.821958 18.31254,4.069452l0,16.277817c0,2.247494 -8.198804,4.069445 -18.31254,4.069445c-10.113733,0 -18.312534,-1.821951 -18.312534,-4.069445l0,-16.277817z" stroke-linecap="null" stroke-linejoin="null" stroke-dasharray="null" stroke-width="3" fill="#ffffff" fill-opacity="1"/>
  </g>
  <line stroke="#ffffff" id="svg_64" y2="366.61728394031525" x2="121.38271605968475" y1="242.61728394031525" x1="123.38271605968475" stroke-linecap="null" stroke-linejoin="null" stroke-dasharray="null" stroke-width="3" fill="none" class="selected"/>
 <rect stroke="#000000" id="svg_27" height="83.5615463256836" width="48.35007858276367" y="354.49542236328125" x="295.908203125" stroke-linecap="null" stroke-linejoin="null" stroke-dasharray="null" stroke-width="3" fill="#ffffff" class="selected" fill-opacity="1"/><line stroke="#000000" id="svg_28" y2="371.3128356933594" x2="326.93634033203125" y1="371.3128356933594" x1="300.63812255859375" stroke-linecap="null" stroke-linejoin="null" stroke-dasharray="null" stroke-width="3" fill="none" class="selected"/><line stroke="#000000" id="svg_29" y2="389.1813659667969" x2="332.1750183105469" y1="389.1813659667969" x1="299.5870361328125" stroke-linecap="null" stroke-linejoin="null" stroke-dasharray="null" stroke-width="3" fill="none" class="selected"/><line stroke="#000000" id="svg_30" y2="398.1156005859375" x2="333.2239990234375" y1="398.1156005859375" x1="300.635986328125" stroke-linecap="null" stroke-linejoin="null" stroke-dasharray="null" stroke-width="3" fill="none" class="selected"/><line stroke="#000000" id="svg_31" y2="406.5243225097656" x2="335.326171875" y1="406.5243225097656" x1="302.7381896972656" stroke-linecap="null" stroke-linejoin="null" stroke-dasharray="null" stroke-width="3" fill="none" class="selected"/><line stroke="#000000" id="svg_32" y2="415.984130859375" x2="336.9028015136719" y1="415.984130859375" x1="304.3148193359375" stroke-linecap="null" stroke-linejoin="null" stroke-dasharray="null" stroke-width="3" fill="none" class="selected"/><line stroke="#000000" id="svg_33" y2="425.9694519042969" x2="339.530517578125" y1="425.9694519042969" x1="306.9425354003906" stroke-linecap="null" stroke-linejoin="null" stroke-dasharray="null" stroke-width="3" fill="none" class="selected"/><rect stroke="#000000" id="svg_34" height="7.357621192932129" width="7.357621192932129" y="367.634033203125" x="332.6963195800781" stroke-linecap="null" stroke-linejoin="null" stroke-dasharray="null" stroke-width="3" fill="#ffffff" class="selected" fill-opacity="1"/><path stroke="#000000" id="svg_35" d="m362.693519,344.856693l-1.172037,-4.102128c0.343477,-0.301295 0.665861,-0.623681 0.970169,-0.968663l4.099116,1.172037c0.432358,-0.629706 0.804457,-1.298581 1.137388,-1.993065l-3.05061,-2.952689c0.146128,-0.433865 0.272671,-0.875262 0.363061,-1.330217l4.111168,-1.030429c0.030129,-0.379631 0.058752,-0.760769 0.058752,-1.14944s-0.030129,-0.768301 -0.058752,-1.147933l-4.111168,-1.030428c-0.091896,-0.454956 -0.218439,-0.896352 -0.363061,-1.330217l3.052117,-2.952689c-0.334437,-0.692978 -0.706537,-1.363359 -1.138894,-1.993065l-4.099116,1.17053c-0.302801,-0.343476 -0.626693,-0.665861 -0.970169,-0.968663l1.172037,-4.100622c-0.629706,-0.430852 -1.300088,-0.804457 -1.994572,-1.137388l-2.952689,3.052117c-0.432358,-0.146128 -0.875261,-0.271165 -1.330217,-0.36306l-1.028922,-4.112674c-0.381138,-0.028623 -0.760769,-0.058753 -1.149439,-0.058753s-0.768302,0.030129 -1.147933,0.058753l-1.030428,4.112674c-0.454955,0.091895 -0.896352,0.216932 -1.330217,0.36306l-2.952689,-3.052117c-0.692978,0.337451 -1.361852,0.70955 -1.991559,1.141907l1.172036,4.100623c-0.343476,0.301295 -0.667368,0.625187 -0.968662,0.967156l-4.100622,-1.172036c-0.432359,0.629706 -0.804457,1.300087 -1.137388,1.994571l3.052117,2.952689c-0.144621,0.433865 -0.271165,0.875262 -0.36306,1.330217l-4.112675,1.030428c-0.028623,0.379632 -0.058753,0.760769 -0.058753,1.147933s0.03013,0.768302 0.058753,1.14944l4.112675,1.030428c0.091895,0.454956 0.218439,0.896352 0.36306,1.330217l-3.052117,2.952689c0.332931,0.692978 0.70503,1.363359 1.137388,1.993065l4.100622,-1.172037c0.301294,0.344983 0.625187,0.665862 0.968662,0.968663l-1.172036,4.102129c0.629706,0.430852 1.300087,0.80295 1.993065,1.137388l2.952689,-3.052116c0.433864,0.146127 0.875261,0.272671 1.330217,0.36306l1.030428,4.111168c0.379632,0.03013 0.760769,0.058753 1.14944,0.058753s0.768302,-0.03013 1.14944,-0.058753l1.028921,-4.111168c0.454956,-0.091895 0.897859,-0.218439 1.330217,-0.36306l2.95269,3.052116c0.691471,-0.33745 1.361852,-0.709549 1.991559,-1.140401zm-8.454333,-7.232582c-2.827652,0 -5.120505,-2.292853 -5.120505,-5.120505s2.292853,-5.118999 5.120505,-5.118999s5.118999,2.291347 5.118999,5.118999s-2.291348,5.120505 -5.118999,5.120505zm23.338296,10.703499c0.028623,-0.824042 -0.090389,-1.663148 -0.346489,-2.491708l1.874054,-2.670979c-0.283218,-0.527266 -0.60259,-1.027416 -0.96565,-1.482371l-3.196738,0.670381c-0.644771,-0.548357 -1.378424,-0.976195 -2.163297,-1.282009l-0.920456,-3.13196c-0.581499,-0.10244 -1.170531,-0.15818 -1.767094,-0.159687l-1.467306,2.916534c-0.420306,0.081349 -0.840613,0.192828 -1.253386,0.351008c-0.387164,0.147635 -0.748718,0.331425 -1.095206,0.531785l-3.021987,-1.233802c-0.447423,0.394696 -0.855678,0.821028 -1.224764,1.283516l1.366373,2.964741c-0.390177,0.745705 -0.65833,1.548656 -0.781861,2.387762l-2.848743,1.596862c0.028623,0.584512 0.114492,1.169024 0.247062,1.755042l3.169622,0.781861c0.347996,0.789392 0.815002,1.495929 1.37993,2.098519l-0.530279,3.220841c0.482072,0.346489 0.994273,0.644771 1.526059,0.903884l2.583603,-1.988545c0.80747,0.212413 1.652602,0.293762 2.503759,0.225971l2.187401,2.420903c0.301295,-0.085869 0.601083,-0.177764 0.897859,-0.290749c0.263633,-0.099427 0.512201,-0.216932 0.760769,-0.335944l0.05574,-3.261516c0.685445,-0.510695 1.269957,-1.125337 1.735457,-1.816808l3.255491,-0.201868c0.228984,-0.540824 0.420306,-1.102739 0.554383,-1.679719l-2.514305,-2.081946zm-6.271451,3.023493c-1.809276,0.689965 -3.833977,-0.216932 -4.525449,-2.026208s0.215426,-3.835483 2.024702,-4.526954c1.809275,-0.689966 3.836989,0.216932 4.528461,2.026207c0.689965,1.809276 -0.218439,3.835483 -2.027714,4.526955z" stroke-linecap="null" stroke-linejoin="null" stroke-dasharray="null" stroke-width="3" fill="#ffffff" class="selected" fill-opacity="1"/></g>
</svg>