<svg xmlns="http://www.w3.org/2000/svg" xmlns:svg="http://www.w3.org/2000/svg" width="640" height="480"><rect id="backgroundrect" width="100%" height="100%" x="0" y="0" fill="none" stroke="none"/>
 <!-- Created with SVG-edit - http://svg-edit.googlecode.com/ -->
 <g class="currentLayer">
  <title>Layer 1</title>
  <g id="svg_14" class="" stroke-width="3" fill="#ffffff" fill-opacity="1">
   <path id="svg_12" d="m272.17162,106.527794c0,4.510326 -16.453541,8.166668 -36.750012,8.166668m36.750012,-8.166668l0,0c0,4.510326 -16.453541,8.166668 -36.750012,8.166668c-20.296464,0 -36.75,-3.656335 -36.75,-8.166668m0,0l0,0c0,-4.510321 16.453536,-8.166666 36.75,-8.166666c20.296471,0 36.750012,3.656345 36.750012,8.166666l0,32.666684c0,4.510321 -16.453541,8.166653 -36.750012,8.166653c-20.296464,0 -36.75,-3.656332 -36.75,-8.166653l0,-32.666684z" stroke-linecap="null" stroke-linejoin="null" stroke-dasharray="null" stroke-width="3" stroke="#000000" fill="#ffffff" fill-opacity="1"/>
   <path id="svg_13" d="m272.420903,81.360453c0,4.510326 -16.453541,8.166668 -36.750012,8.166668m36.750012,-8.166668l0,0c0,4.510326 -16.453541,8.166668 -36.750012,8.166668c-20.296464,0 -36.75,-3.656335 -36.75,-8.166668m0,0l0,0c0,-4.510321 16.453536,-8.166666 36.75,-8.166666c20.296471,0 36.750012,3.656345 36.750012,8.166666l0,32.666684c0,4.510321 -16.453541,8.166653 -36.750012,8.166653c-20.296464,0 -36.75,-3.656332 -36.75,-8.166653l0,-32.666684z" stroke-linecap="null" stroke-linejoin="null" stroke-dasharray="null" stroke-width="3" stroke="#000000" fill="#ffffff" fill-opacity="1"/>
   <path id="svg_14" d="m272.420903,50.360453c0,4.510326 -16.453541,8.166668 -36.750012,8.166668m36.750012,-8.166668l0,0c0,4.510326 -16.453541,8.166668 -36.750012,8.166668c-20.296464,0 -36.75,-3.656335 -36.75,-8.166668m0,0l0,0c0,-4.510321 16.453536,-8.166666 36.75,-8.166666c20.296471,0 36.750012,3.656345 36.750012,8.166666l0,32.666684c0,4.510321 -16.453541,8.166653 -36.750012,8.166653c-20.296464,0 -36.75,-3.656332 -36.75,-8.166653l0,-32.666684z" stroke-linecap="null" stroke-linejoin="null" stroke-dasharray="null" stroke-width="3" stroke="#000000" fill="#ffffff" fill-opacity="1"/>
  </g>
  <g id="svg_26" stroke="null" class="" stroke-width="3" fill="#ffffff" fill-opacity="1">
   <rect id="svg_16" stroke="#000000" height="83.5615463256836" width="48.35007858276367" y="353.189208984375" x="62.57911682128906" stroke-linecap="null" stroke-linejoin="null" stroke-dasharray="null" stroke-width="3" fill="#ffffff" fill-opacity="1"/>
   <line id="svg_17" stroke="#000000" y2="370.0066223144531" x2="93.60724639892578" y1="370.0066223144531" x1="67.30901336669922" stroke-linecap="null" stroke-linejoin="null" stroke-dasharray="null" stroke-width="3" fill="none"/>
   <line id="svg_18" stroke="#000000" y2="387.8751525878906" x2="98.84591674804688" y1="387.8751525878906" x1="66.25792694091797" stroke-linecap="null" stroke-linejoin="null" stroke-dasharray="null" stroke-width="3" fill="none"/>
   <line id="svg_19" stroke="#000000" y2="396.80938720703125" x2="99.89488220214844" y1="396.80938720703125" x1="67.30690002441406" stroke-linecap="null" stroke-linejoin="null" stroke-dasharray="null" stroke-width="3" fill="none"/>
   <line id="svg_20" stroke="#000000" y2="405.2181091308594" x2="101.99706268310547" y1="405.2181091308594" x1="69.40907287597656" stroke-linecap="null" stroke-linejoin="null" stroke-dasharray="null" stroke-width="3" fill="none"/>
   <line id="svg_22" stroke="#000000" y2="414.67791748046875" x2="103.57369232177734" y1="414.67791748046875" x1="70.98571014404297" stroke-linecap="null" stroke-linejoin="null" stroke-dasharray="null" stroke-width="3" fill="none"/>
   <line id="svg_23" stroke="#000000" y2="424.6632385253906" x2="106.201416015625" y1="424.6632385253906" x1="73.61343383789062" stroke-linecap="null" stroke-linejoin="null" stroke-dasharray="null" stroke-width="3" fill="none"/>
   <rect id="svg_24" stroke="#000000" height="7.357621192932129" width="7.357621192932129" y="366.32781982421875" x="99.36721801757812" stroke-linecap="null" stroke-linejoin="null" stroke-dasharray="null" stroke-width="3" fill="#ffffff" fill-opacity="1"/>
   <path id="svg_25" stroke="#000000" d="m129.364417,343.550482l-1.172037,-4.102128c0.343477,-0.301295 0.665862,-0.623681 0.97017,-0.968663l4.099116,1.172037c0.432358,-0.629706 0.804457,-1.298581 1.137388,-1.993065l-3.05061,-2.952689c0.146127,-0.433865 0.272671,-0.875262 0.36306,-1.330217l4.111168,-1.030429c0.030129,-0.379631 0.058752,-0.760769 0.058752,-1.14944s-0.030129,-0.768301 -0.058752,-1.147933l-4.111168,-1.030428c-0.091895,-0.454955 -0.218439,-0.896352 -0.36306,-1.330216l3.052116,-2.95269c-0.334437,-0.692978 -0.706536,-1.363358 -1.138894,-1.993065l-4.099116,1.170531c-0.302801,-0.343476 -0.626693,-0.665862 -0.97017,-0.968663l1.172037,-4.100623c-0.629706,-0.430851 -1.300087,-0.804457 -1.994571,-1.137388l-2.95269,3.052117c-0.432358,-0.146128 -0.875261,-0.271166 -1.330217,-0.36306l-1.028922,-4.112674c-0.381137,-0.028624 -0.760768,-0.058753 -1.149439,-0.058753s-0.768301,0.030129 -1.147933,0.058753l-1.030428,4.112674c-0.454955,0.091894 -0.896353,0.216932 -1.330217,0.36306l-2.952689,-3.052117c-0.692978,0.337451 -1.361853,0.70955 -1.991559,1.141907l1.172037,4.100623c-0.343476,0.301295 -0.667369,0.625187 -0.968663,0.967156l-4.100622,-1.172036c-0.432359,0.629706 -0.804457,1.300087 -1.137388,1.994571l3.052116,2.952689c-0.144621,0.433865 -0.271165,0.875262 -0.36306,1.330217l-4.112674,1.030428c-0.028623,0.379632 -0.058753,0.76077 -0.058753,1.147934s0.03013,0.768302 0.058753,1.149439l4.112674,1.030429c0.091895,0.454955 0.218439,0.896352 0.36306,1.330217l-3.052116,2.952688c0.332931,0.692979 0.705029,1.363359 1.137388,1.993066l4.100622,-1.172037c0.301294,0.344982 0.625187,0.665861 0.968663,0.968663l-1.172037,4.102129c0.629706,0.430852 1.300087,0.80295 1.993066,1.137387l2.952688,-3.052115c0.433865,0.146127 0.875262,0.272671 1.330217,0.36306l1.030428,4.111167c0.379632,0.03013 0.760769,0.058753 1.14944,0.058753s0.768302,-0.03013 1.14944,-0.058753l1.028921,-4.111167c0.454956,-0.091895 0.897859,-0.21844 1.330217,-0.36306l2.95269,3.052115c0.691471,-0.337449 1.361852,-0.709549 1.991558,-1.140401zm-8.454332,-7.232581c-2.827652,0 -5.120506,-2.292854 -5.120506,-5.120506s2.292854,-5.118999 5.120506,-5.118999s5.118999,2.291347 5.118999,5.118999s-2.291348,5.120506 -5.118999,5.120506zm23.338296,10.703498c0.028623,-0.824041 -0.090388,-1.663147 -0.346489,-2.491708l1.874054,-2.670979c-0.283218,-0.527266 -0.60259,-1.027415 -0.96565,-1.48237l-3.196738,0.670381c-0.644771,-0.548357 -1.378424,-0.976195 -2.163297,-1.28201l-0.920455,-3.131959c-0.5815,-0.102441 -1.170531,-0.15818 -1.767094,-0.159687l-1.467306,2.916535c-0.420307,0.081349 -0.840613,0.192828 -1.253387,0.351008c-0.387164,0.147634 -0.748717,0.331424 -1.095206,0.531785l-3.021987,-1.233802c-0.447423,0.394696 -0.855678,0.821028 -1.224764,1.283516l1.366372,2.964741c-0.390177,0.745704 -0.658329,1.548656 -0.78186,2.387761l-2.848743,1.596863c0.028624,0.584511 0.114493,1.169024 0.247062,1.755042l3.169622,0.78186c0.347995,0.789392 0.815002,1.495929 1.37993,2.098519l-0.530279,3.220841c0.482072,0.346489 0.994273,0.644771 1.526058,0.903884l2.583604,-1.988545c0.80747,0.212412 1.652602,0.293762 2.503759,0.225971l2.187401,2.420904c0.301295,-0.085869 0.601083,-0.177764 0.897858,-0.29075c0.263633,-0.099427 0.512202,-0.216932 0.76077,-0.335943l0.05574,-3.261517c0.685445,-0.510695 1.269957,-1.125336 1.735457,-1.816808l3.255491,-0.201867c0.228984,-0.540824 0.420306,-1.102739 0.554382,-1.679719l-2.514305,-2.081947zm-6.271451,3.023494c-1.809276,0.689965 -3.833977,-0.216933 -4.525449,-2.026208s0.215426,-3.835483 2.024702,-4.526954c1.809275,-0.689966 3.836989,0.216932 4.52846,2.026207c0.689965,1.809275 -0.218438,3.835483 -2.027713,4.526955z" stroke-linecap="null" stroke-linejoin="null" stroke-dasharray="null" stroke-width="3" fill="#ffffff" fill-opacity="1"/>
  </g>
  <g id="svg_36" stroke="null" class="" stroke-width="3" fill="#ffffff" fill-opacity="1">
   <rect id="svg_28" stroke="#000000" height="83.5615463256836" width="48.35007858276367" y="352.3960876464844" x="208.57911682128906" stroke-linecap="null" stroke-linejoin="null" stroke-dasharray="null" stroke-width="3" fill="#ffffff" fill-opacity="1"/>
   <line id="svg_29" stroke="#000000" y2="369.2135009765625" x2="239.60723876953125" y1="369.2135009765625" x1="213.30902099609375" stroke-linecap="null" stroke-linejoin="null" stroke-dasharray="null" stroke-width="3" fill="none"/>
   <line id="svg_30" stroke="#000000" y2="387.08203125" x2="244.84591674804688" y1="387.08203125" x1="212.2579345703125" stroke-linecap="null" stroke-linejoin="null" stroke-dasharray="null" stroke-width="3" fill="none"/>
   <line id="svg_31" stroke="#000000" y2="396.0162658691406" x2="245.89488220214844" y1="396.0162658691406" x1="213.30690002441406" stroke-linecap="null" stroke-linejoin="null" stroke-dasharray="null" stroke-width="3" fill="none"/>
   <line id="svg_32" stroke="#000000" y2="404.42498779296875" x2="247.9970703125" y1="404.42498779296875" x1="215.40907287597656" stroke-linecap="null" stroke-linejoin="null" stroke-dasharray="null" stroke-width="3" fill="none"/>
   <line id="svg_33" stroke="#000000" y2="413.8847961425781" x2="249.57369995117188" y1="413.8847961425781" x1="216.98570251464844" stroke-linecap="null" stroke-linejoin="null" stroke-dasharray="null" stroke-width="3" fill="none"/>
   <line id="svg_34" stroke="#000000" y2="423.8701171875" x2="252.201416015625" y1="423.8701171875" x1="219.61343383789062" stroke-linecap="null" stroke-linejoin="null" stroke-dasharray="null" stroke-width="3" fill="none"/>
   <rect id="svg_35" stroke="#000000" height="7.357621192932129" width="7.357621192932129" y="365.5346984863281" x="245.36721801757812" stroke-linecap="null" stroke-linejoin="null" stroke-dasharray="null" stroke-width="3" fill="#ffffff" fill-opacity="1"/>
   <path id="svg_36" stroke="#000000" d="m275.364417,342.757361l-1.172037,-4.102128c0.343477,-0.301295 0.665862,-0.623681 0.97017,-0.968663l4.099116,1.172037c0.432358,-0.629706 0.804457,-1.298581 1.137388,-1.993065l-3.05061,-2.952689c0.146127,-0.433865 0.272671,-0.875262 0.36306,-1.330217l4.111168,-1.030429c0.030129,-0.379631 0.058752,-0.760769 0.058752,-1.14944s-0.030129,-0.768301 -0.058752,-1.147933l-4.111168,-1.030428c-0.091895,-0.454955 -0.218439,-0.896352 -0.36306,-1.330216l3.052116,-2.95269c-0.334437,-0.692978 -0.706536,-1.363358 -1.138894,-1.993065l-4.099116,1.170531c-0.302801,-0.343476 -0.626693,-0.665862 -0.97017,-0.968663l1.172037,-4.100623c-0.629706,-0.430851 -1.300087,-0.804457 -1.994571,-1.137388l-2.95269,3.052117c-0.432358,-0.146128 -0.875261,-0.271166 -1.330217,-0.36306l-1.028922,-4.112674c-0.381137,-0.028624 -0.760768,-0.058753 -1.149439,-0.058753s-0.768301,0.030129 -1.147933,0.058753l-1.030428,4.112674c-0.454955,0.091894 -0.896353,0.216932 -1.330217,0.36306l-2.952689,-3.052117c-0.692978,0.337451 -1.361853,0.70955 -1.991559,1.141907l1.172037,4.100623c-0.343476,0.301295 -0.667369,0.625187 -0.968663,0.967156l-4.100622,-1.172036c-0.432359,0.629706 -0.804457,1.300087 -1.137388,1.994571l3.052116,2.952689c-0.144621,0.433865 -0.271165,0.875262 -0.36306,1.330217l-4.112674,1.030428c-0.028623,0.379632 -0.058753,0.76077 -0.058753,1.147934s0.03013,0.768302 0.058753,1.149439l4.112674,1.030429c0.091895,0.454955 0.218439,0.896352 0.36306,1.330217l-3.052116,2.952688c0.332931,0.692979 0.705029,1.363359 1.137388,1.993066l4.100622,-1.172037c0.301294,0.344982 0.625187,0.665861 0.968663,0.968663l-1.172037,4.102129c0.629706,0.430852 1.300087,0.80295 1.993066,1.137387l2.952688,-3.052115c0.433865,0.146127 0.875262,0.272671 1.330217,0.36306l1.030428,4.111167c0.379632,0.03013 0.760769,0.058753 1.14944,0.058753s0.768302,-0.03013 1.14944,-0.058753l1.028921,-4.111167c0.454956,-0.091895 0.897859,-0.21844 1.330217,-0.36306l2.95269,3.052115c0.691471,-0.337449 1.361852,-0.709549 1.991558,-1.140401zm-8.454332,-7.232581c-2.827652,0 -5.120506,-2.292854 -5.120506,-5.120506s2.292854,-5.118999 5.120506,-5.118999s5.118999,2.291347 5.118999,5.118999s-2.291348,5.120506 -5.118999,5.120506zm23.338296,10.703498c0.028623,-0.824041 -0.090388,-1.663147 -0.346489,-2.491708l1.874054,-2.670979c-0.283218,-0.527266 -0.60259,-1.027415 -0.96565,-1.48237l-3.196738,0.670381c-0.644771,-0.548357 -1.378424,-0.976195 -2.163297,-1.28201l-0.920455,-3.131959c-0.5815,-0.102441 -1.170531,-0.15818 -1.767094,-0.159687l-1.467306,2.916535c-0.420307,0.081349 -0.840613,0.192828 -1.253387,0.351008c-0.387164,0.147634 -0.748717,0.331424 -1.095206,0.531785l-3.021987,-1.233802c-0.447423,0.394696 -0.855678,0.821028 -1.224764,1.283516l1.366372,2.964741c-0.390177,0.745704 -0.658329,1.548656 -0.78186,2.387761l-2.848743,1.596863c0.028624,0.584511 0.114493,1.169024 0.247062,1.755042l3.169622,0.78186c0.347995,0.789392 0.815002,1.495929 1.37993,2.098519l-0.530279,3.220841c0.482072,0.346489 0.994273,0.644771 1.526058,0.903884l2.583604,-1.988545c0.80747,0.212412 1.652602,0.293762 2.503759,0.225971l2.187401,2.420904c0.301295,-0.085869 0.601083,-0.177764 0.897858,-0.29075c0.263633,-0.099427 0.512202,-0.216932 0.76077,-0.335943l0.05574,-3.261517c0.685445,-0.510695 1.269957,-1.125336 1.735457,-1.816808l3.255491,-0.201867c0.228984,-0.540824 0.420306,-1.102739 0.554382,-1.679719l-2.514305,-2.081947zm-6.271451,3.023494c-1.809276,0.689965 -3.833977,-0.216933 -4.525449,-2.026208s0.215426,-3.835483 2.024702,-4.526954c1.809275,-0.689966 3.836989,0.216932 4.52846,2.026207c0.689965,1.809275 -0.218438,3.835483 -2.027713,4.526955z" stroke-linecap="null" stroke-linejoin="null" stroke-dasharray="null" stroke-width="3" fill="#ffffff" fill-opacity="1"/>
  </g>
  <g id="svg_60" stroke="null" class="" stroke-width="3" fill="#ffffff" fill-opacity="1">
   <path id="svg_42" stroke="#000000" d="m104.421316,282.930202c0,2.247496 -8.198803,4.069452 -18.31254,4.069452m18.31254,-4.069452l0,0c0,2.247496 -8.198803,4.069452 -18.31254,4.069452c-10.113733,0 -18.312534,-1.821952 -18.312534,-4.069452m0,0l0,0c0,-2.247494 8.198801,-4.069452 18.312534,-4.069452c10.113737,0 18.31254,1.821958 18.31254,4.069452l0,16.277817c0,2.247494 -8.198803,4.069445 -18.31254,4.069445c-10.113733,0 -18.312534,-1.821951 -18.312534,-4.069445l0,-16.277817z" stroke-linecap="null" stroke-linejoin="null" stroke-dasharray="null" stroke-width="3" fill="#ffffff" fill-opacity="1"/>
   <path id="svg_43" stroke="#000000" d="m104.545534,270.389309c0,2.247497 -8.198804,4.069453 -18.31254,4.069453m18.31254,-4.069453l0,0c0,2.247497 -8.198804,4.069453 -18.31254,4.069453c-10.113733,0 -18.312535,-1.821953 -18.312535,-4.069453m0,0l0,0c0,-2.247494 8.198802,-4.069452 18.312535,-4.069452c10.113736,0 18.31254,1.821958 18.31254,4.069452l0,16.277817c0,2.247494 -8.198804,4.069445 -18.31254,4.069445c-10.113733,0 -18.312535,-1.821951 -18.312535,-4.069445l0,-16.277817z" stroke-linecap="null" stroke-linejoin="null" stroke-dasharray="null" stroke-width="3" fill="#ffffff" fill-opacity="1"/>
   <path id="svg_44" stroke="#000000" d="m104.545534,254.942001c0,2.247497 -8.198804,4.069453 -18.31254,4.069453m18.31254,-4.069453l0,0c0,2.247497 -8.198804,4.069453 -18.31254,4.069453c-10.113733,0 -18.312535,-1.821953 -18.312535,-4.069453m0,0l0,0c0,-2.247494 8.198802,-4.069451 18.312535,-4.069451c10.113736,0 18.31254,1.821957 18.31254,4.069451l0,16.277817c0,2.247494 -8.198804,4.069446 -18.31254,4.069446c-10.113733,0 -18.312535,-1.821952 -18.312535,-4.069446l0,-16.277817z" stroke-linecap="null" stroke-linejoin="null" stroke-dasharray="null" stroke-width="3" fill="#ffffff" fill-opacity="1"/>
  </g>
  <g id="svg_46" stroke="null" class="" stroke-width="3" fill="#ffffff" fill-opacity="1">
   <path id="svg_47" stroke="#000000" d="m245.250418,280.855197c0,2.247496 -8.198803,4.069452 -18.31254,4.069452m18.31254,-4.069452l0,0c0,2.247496 -8.198803,4.069452 -18.31254,4.069452c-10.113733,0 -18.312534,-1.821952 -18.312534,-4.069452m0,0l0,0c0,-2.247494 8.198801,-4.069452 18.312534,-4.069452c10.113737,0 18.31254,1.821958 18.31254,4.069452l0,16.277817c0,2.247494 -8.198803,4.069445 -18.31254,4.069445c-10.113733,0 -18.312534,-1.821951 -18.312534,-4.069445l0,-16.277817z" stroke-linecap="null" stroke-linejoin="null" stroke-dasharray="null" stroke-width="3" fill="#ffffff" fill-opacity="1"/>
   <path id="svg_48" stroke="#000000" d="m245.374636,268.314304c0,2.247497 -8.198804,4.069453 -18.31254,4.069453m18.31254,-4.069453l0,0c0,2.247497 -8.198804,4.069453 -18.31254,4.069453c-10.113733,0 -18.312535,-1.821953 -18.312535,-4.069453m0,0l0,0c0,-2.247494 8.198802,-4.069452 18.312535,-4.069452c10.113736,0 18.31254,1.821958 18.31254,4.069452l0,16.277817c0,2.247494 -8.198804,4.069445 -18.31254,4.069445c-10.113733,0 -18.312535,-1.821951 -18.312535,-4.069445l0,-16.277817z" stroke-linecap="null" stroke-linejoin="null" stroke-dasharray="null" stroke-width="3" fill="#ffffff" fill-opacity="1"/>
   <path id="svg_49" stroke="#000000" d="m245.374636,252.866996c0,2.247497 -8.198804,4.069453 -18.31254,4.069453m18.31254,-4.069453l0,0c0,2.247497 -8.198804,4.069453 -18.31254,4.069453c-10.113733,0 -18.312535,-1.821953 -18.312535,-4.069453m0,0l0,0c0,-2.247494 8.198802,-4.069451 18.312535,-4.069451c10.113736,0 18.31254,1.821957 18.31254,4.069451l0,16.277817c0,2.247494 -8.198804,4.069446 -18.31254,4.069446c-10.113733,0 -18.312535,-1.821952 -18.312535,-4.069446l0,-16.277817z" stroke-linecap="null" stroke-linejoin="null" stroke-dasharray="null" stroke-width="3" fill="#ffffff" fill-opacity="1"/>
  </g>
  <line id="svg_50" y2="345" x2="84" y1="313" x1="84" stroke-linecap="null" stroke-linejoin="null" stroke-dasharray="null" stroke-width="3" stroke="#ffffff" fill="none" class=""/>
  <line id="svg_51" y2="344.015625" x2="223" y1="312" x1="223" stroke-linecap="null" stroke-linejoin="null" stroke-dasharray="null" stroke-width="3" stroke="#ffffff" fill="none" class=""/>
  <g id="svg_83" stroke="null" class="" stroke-width="3" fill="#ffffff" fill-opacity="1">
   <rect id="svg_84" stroke="#000000" height="83.5615463256836" width="48.35007858276367" y="352.4150695800781" x="334.908203125" stroke-linecap="null" stroke-linejoin="null" stroke-dasharray="null" stroke-width="3" fill="#ffffff" fill-opacity="1"/>
   <line id="svg_85" stroke="#000000" y2="369.23248291015625" x2="365.93634033203125" y1="369.23248291015625" x1="339.63812255859375" stroke-linecap="null" stroke-linejoin="null" stroke-dasharray="null" stroke-width="3" fill="none"/>
   <line id="svg_86" stroke="#000000" y2="387.1009826660156" x2="371.1750183105469" y1="387.1009826660156" x1="338.5870361328125" stroke-linecap="null" stroke-linejoin="null" stroke-dasharray="null" stroke-width="3" fill="none"/>
   <line id="svg_87" stroke="#000000" y2="396.0352478027344" x2="372.2239990234375" y1="396.0352478027344" x1="339.635986328125" stroke-linecap="null" stroke-linejoin="null" stroke-dasharray="null" stroke-width="3" fill="none"/>
   <line id="svg_88" stroke="#000000" y2="404.4439392089844" x2="374.326171875" y1="404.4439392089844" x1="341.7381896972656" stroke-linecap="null" stroke-linejoin="null" stroke-dasharray="null" stroke-width="3" fill="none"/>
   <line id="svg_89" stroke="#000000" y2="413.90374755859375" x2="375.9028015136719" y1="413.90374755859375" x1="343.3148193359375" stroke-linecap="null" stroke-linejoin="null" stroke-dasharray="null" stroke-width="3" fill="none"/>
   <line id="svg_90" stroke="#000000" y2="423.88909912109375" x2="378.530517578125" y1="423.88909912109375" x1="345.9425354003906" stroke-linecap="null" stroke-linejoin="null" stroke-dasharray="null" stroke-width="3" fill="none"/>
   <rect id="svg_91" stroke="#000000" height="7.357621192932129" width="7.357621192932129" y="365.5536804199219" x="371.6963195800781" stroke-linecap="null" stroke-linejoin="null" stroke-dasharray="null" stroke-width="3" fill="#ffffff" fill-opacity="1"/>
   <path id="svg_92" stroke="#000000" d="m401.693519,342.776327l-1.172037,-4.102128c0.343477,-0.301295 0.665862,-0.623681 0.97017,-0.968663l4.099116,1.172037c0.432358,-0.629706 0.804457,-1.298581 1.137388,-1.993065l-3.05061,-2.952689c0.146127,-0.433865 0.272671,-0.875262 0.36306,-1.330217l4.111168,-1.030429c0.030129,-0.379631 0.058752,-0.760769 0.058752,-1.14944s-0.030129,-0.768301 -0.058752,-1.147933l-4.111168,-1.030428c-0.091895,-0.454955 -0.218439,-0.896352 -0.36306,-1.330216l3.052116,-2.95269c-0.334437,-0.692978 -0.706536,-1.363358 -1.138894,-1.993065l-4.099116,1.170531c-0.302801,-0.343476 -0.626693,-0.665862 -0.97017,-0.968663l1.172037,-4.100623c-0.629706,-0.430851 -1.300087,-0.804457 -1.994571,-1.137388l-2.95269,3.052117c-0.432358,-0.146128 -0.875261,-0.271166 -1.330217,-0.36306l-1.028922,-4.112674c-0.381137,-0.028624 -0.760768,-0.058753 -1.149439,-0.058753s-0.768301,0.030129 -1.147933,0.058753l-1.030428,4.112674c-0.454955,0.091894 -0.896353,0.216932 -1.330217,0.36306l-2.952689,-3.052117c-0.692978,0.337451 -1.361853,0.70955 -1.991559,1.141907l1.172037,4.100623c-0.343476,0.301295 -0.667369,0.625187 -0.968663,0.967156l-4.100622,-1.172036c-0.432359,0.629706 -0.804457,1.300087 -1.137388,1.994571l3.052116,2.952689c-0.144621,0.433865 -0.271165,0.875262 -0.36306,1.330217l-4.112674,1.030428c-0.028623,0.379632 -0.058753,0.76077 -0.058753,1.147934s0.03013,0.768302 0.058753,1.149439l4.112674,1.030429c0.091895,0.454955 0.218439,0.896352 0.36306,1.330217l-3.052116,2.952688c0.332931,0.692979 0.705029,1.363359 1.137388,1.993066l4.100622,-1.172037c0.301294,0.344982 0.625187,0.665861 0.968663,0.968663l-1.172037,4.102129c0.629706,0.430852 1.300087,0.80295 1.993066,1.137387l2.952688,-3.052115c0.433865,0.146127 0.875262,0.272671 1.330217,0.36306l1.030428,4.111167c0.379632,0.03013 0.760769,0.058753 1.14944,0.058753s0.768302,-0.03013 1.14944,-0.058753l1.028921,-4.111167c0.454956,-0.091895 0.897859,-0.21844 1.330217,-0.36306l2.95269,3.052115c0.691471,-0.337449 1.361852,-0.709549 1.991558,-1.140401zm-8.454332,-7.232581c-2.827652,0 -5.120506,-2.292854 -5.120506,-5.120506s2.292854,-5.118999 5.120506,-5.118999s5.118999,2.291347 5.118999,5.118999s-2.291348,5.120506 -5.118999,5.120506zm23.338296,10.703498c0.028623,-0.824041 -0.090388,-1.663147 -0.346489,-2.491708l1.874054,-2.670979c-0.283218,-0.527266 -0.60259,-1.027415 -0.96565,-1.48237l-3.196738,0.670381c-0.644771,-0.548357 -1.378424,-0.976195 -2.163297,-1.28201l-0.920455,-3.131959c-0.5815,-0.102441 -1.170531,-0.15818 -1.767094,-0.159687l-1.467306,2.916535c-0.420307,0.081349 -0.840613,0.192828 -1.253387,0.351008c-0.387164,0.147634 -0.748717,0.331424 -1.095206,0.531785l-3.021987,-1.233802c-0.447423,0.394696 -0.855678,0.821028 -1.224764,1.283516l1.366372,2.964741c-0.390177,0.745704 -0.658329,1.548656 -0.78186,2.387761l-2.848743,1.596863c0.028624,0.584511 0.114493,1.169024 0.247062,1.755042l3.169622,0.78186c0.347995,0.789392 0.815002,1.495929 1.37993,2.098519l-0.530279,3.220841c0.482072,0.346489 0.994273,0.644771 1.526058,0.903884l2.583604,-1.988545c0.80747,0.212412 1.652602,0.293762 2.503759,0.225971l2.187401,2.420904c0.301295,-0.085869 0.601083,-0.177764 0.897858,-0.29075c0.263633,-0.099427 0.512202,-0.216932 0.76077,-0.335943l0.05574,-3.261517c0.685445,-0.510695 1.269957,-1.125336 1.735457,-1.816808l3.255491,-0.201867c0.228984,-0.540824 0.420306,-1.102739 0.554382,-1.679719l-2.514305,-2.081947zm-6.271451,3.023494c-1.809276,0.689965 -3.833977,-0.216933 -4.525449,-2.026208s0.215426,-3.835483 2.024702,-4.526954c1.809275,-0.689966 3.836989,0.216932 4.52846,2.026207c0.689965,1.809275 -0.218438,3.835483 -2.027713,4.526955z" stroke-linecap="null" stroke-linejoin="null" stroke-dasharray="null" stroke-width="3" fill="#ffffff" fill-opacity="1"/>
  </g>
  <g id="svg_93" stroke="null" class="" stroke-width="3" fill="#ffffff" fill-opacity="1">
   <rect id="svg_94" stroke="#000000" height="83.5615463256836" width="48.35007858276367" y="351.6219482421875" x="480.908203125" stroke-linecap="null" stroke-linejoin="null" stroke-dasharray="null" stroke-width="3" fill="#ffffff" fill-opacity="1"/>
   <line id="svg_95" stroke="#000000" y2="368.4393615722656" x2="511.93634033203125" y1="368.4393615722656" x1="485.63812255859375" stroke-linecap="null" stroke-linejoin="null" stroke-dasharray="null" stroke-width="3" fill="none"/>
   <line id="svg_96" stroke="#000000" y2="386.307861328125" x2="517.1749877929688" y1="386.307861328125" x1="484.5870361328125" stroke-linecap="null" stroke-linejoin="null" stroke-dasharray="null" stroke-width="3" fill="none"/>
   <line id="svg_97" stroke="#000000" y2="395.24212646484375" x2="518.2239990234375" y1="395.24212646484375" x1="485.635986328125" stroke-linecap="null" stroke-linejoin="null" stroke-dasharray="null" stroke-width="3" fill="none"/>
   <line id="svg_98" stroke="#000000" y2="403.65081787109375" x2="520.326171875" y1="403.65081787109375" x1="487.7381896972656" stroke-linecap="null" stroke-linejoin="null" stroke-dasharray="null" stroke-width="3" fill="none"/>
   <line id="svg_99" stroke="#000000" y2="413.1106262207031" x2="521.9027709960938" y1="413.1106262207031" x1="489.3148193359375" stroke-linecap="null" stroke-linejoin="null" stroke-dasharray="null" stroke-width="3" fill="none"/>
   <line id="svg_100" stroke="#000000" y2="423.0959777832031" x2="524.530517578125" y1="423.0959777832031" x1="491.9425354003906" stroke-linecap="null" stroke-linejoin="null" stroke-dasharray="null" stroke-width="3" fill="none"/>
   <rect id="svg_101" stroke="#000000" height="7.357621192932129" width="7.357621192932129" y="364.76055908203125" x="517.6963500976562" stroke-linecap="null" stroke-linejoin="null" stroke-dasharray="null" stroke-width="3" fill="#ffffff" fill-opacity="1"/>
   <path id="svg_102" stroke="#000000" d="m547.693519,341.983206l-1.172037,-4.102128c0.343477,-0.301295 0.665862,-0.623681 0.97017,-0.968663l4.099116,1.172037c0.432358,-0.629706 0.804457,-1.298581 1.137388,-1.993065l-3.05061,-2.952689c0.146127,-0.433865 0.272671,-0.875262 0.36306,-1.330217l4.111168,-1.030429c0.030129,-0.379631 0.058752,-0.760769 0.058752,-1.14944s-0.030129,-0.768301 -0.058752,-1.147933l-4.111168,-1.030428c-0.091895,-0.454955 -0.218439,-0.896352 -0.36306,-1.330216l3.052116,-2.95269c-0.334437,-0.692978 -0.706536,-1.363358 -1.138894,-1.993065l-4.099116,1.170531c-0.302801,-0.343476 -0.626693,-0.665862 -0.97017,-0.968663l1.172037,-4.100623c-0.629706,-0.430851 -1.300087,-0.804457 -1.994571,-1.137388l-2.95269,3.052117c-0.432358,-0.146128 -0.875261,-0.271166 -1.330217,-0.36306l-1.028922,-4.112674c-0.381137,-0.028624 -0.760768,-0.058753 -1.149439,-0.058753s-0.768301,0.030129 -1.147933,0.058753l-1.030428,4.112674c-0.454955,0.091894 -0.896353,0.216932 -1.330217,0.36306l-2.952689,-3.052117c-0.692978,0.337451 -1.361853,0.70955 -1.991559,1.141907l1.172037,4.100623c-0.343476,0.301295 -0.667369,0.625187 -0.968663,0.967156l-4.100622,-1.172036c-0.432359,0.629706 -0.804457,1.300087 -1.137388,1.994571l3.052116,2.952689c-0.144621,0.433865 -0.271165,0.875262 -0.36306,1.330217l-4.112674,1.030428c-0.028623,0.379632 -0.058753,0.76077 -0.058753,1.147934s0.03013,0.768302 0.058753,1.149439l4.112674,1.030429c0.091895,0.454955 0.218439,0.896352 0.36306,1.330217l-3.052116,2.952688c0.332931,0.692979 0.705029,1.363359 1.137388,1.993066l4.100622,-1.172037c0.301294,0.344982 0.625187,0.665861 0.968663,0.968663l-1.172037,4.102129c0.629706,0.430852 1.300087,0.80295 1.993066,1.137387l2.952688,-3.052115c0.433865,0.146127 0.875262,0.272671 1.330217,0.36306l1.030428,4.111167c0.379632,0.03013 0.760769,0.058753 1.14944,0.058753s0.768302,-0.03013 1.14944,-0.058753l1.028921,-4.111167c0.454956,-0.091895 0.897859,-0.21844 1.330217,-0.36306l2.95269,3.052115c0.691471,-0.337449 1.361852,-0.709549 1.991558,-1.140401zm-8.454332,-7.232581c-2.827652,0 -5.120506,-2.292854 -5.120506,-5.120506s2.292854,-5.118999 5.120506,-5.118999s5.118999,2.291347 5.118999,5.118999s-2.291348,5.120506 -5.118999,5.120506zm23.338296,10.703498c0.028623,-0.824041 -0.090388,-1.663147 -0.346489,-2.491708l1.874054,-2.670979c-0.283218,-0.527266 -0.60259,-1.027415 -0.96565,-1.48237l-3.196738,0.670381c-0.644771,-0.548357 -1.378424,-0.976195 -2.163297,-1.28201l-0.920455,-3.131959c-0.5815,-0.102441 -1.170531,-0.15818 -1.767094,-0.159687l-1.467306,2.916535c-0.420307,0.081349 -0.840613,0.192828 -1.253387,0.351008c-0.387164,0.147634 -0.748717,0.331424 -1.095206,0.531785l-3.021987,-1.233802c-0.447423,0.394696 -0.855678,0.821028 -1.224764,1.283516l1.366372,2.964741c-0.390177,0.745704 -0.658329,1.548656 -0.78186,2.387761l-2.848743,1.596863c0.028624,0.584511 0.114493,1.169024 0.247062,1.755042l3.169622,0.78186c0.347995,0.789392 0.815002,1.495929 1.37993,2.098519l-0.530279,3.220841c0.482072,0.346489 0.994273,0.644771 1.526058,0.903884l2.583604,-1.988545c0.80747,0.212412 1.652602,0.293762 2.503759,0.225971l2.187401,2.420904c0.301295,-0.085869 0.601083,-0.177764 0.897858,-0.29075c0.263633,-0.099427 0.512202,-0.216932 0.76077,-0.335943l0.05574,-3.261517c0.685445,-0.510695 1.269957,-1.125336 1.735457,-1.816808l3.255491,-0.201867c0.228984,-0.540824 0.420306,-1.102739 0.554382,-1.679719l-2.514305,-2.081947zm-6.271451,3.023494c-1.809276,0.689965 -3.833977,-0.216933 -4.525449,-2.026208s0.215426,-3.835483 2.024702,-4.526954c1.809275,-0.689966 3.836989,0.216932 4.52846,2.026207c0.689965,1.809275 -0.218438,3.835483 -2.027713,4.526955z" stroke-linecap="null" stroke-linejoin="null" stroke-dasharray="null" stroke-width="3" fill="#ffffff" fill-opacity="1"/>
  </g>
  <g id="svg_103" stroke="null" class="" stroke-width="3" fill="#ffffff" fill-opacity="1">
   <path id="svg_104" stroke="#000000" d="m376.750418,282.156047c0,2.247496 -8.198803,4.069452 -18.31254,4.069452m18.31254,-4.069452l0,0c0,2.247496 -8.198803,4.069452 -18.31254,4.069452c-10.113733,0 -18.312534,-1.821952 -18.312534,-4.069452m0,0l0,0c0,-2.247494 8.198801,-4.069452 18.312534,-4.069452c10.113737,0 18.31254,1.821958 18.31254,4.069452l0,16.277817c0,2.247494 -8.198803,4.069445 -18.31254,4.069445c-10.113733,0 -18.312534,-1.821951 -18.312534,-4.069445l0,-16.277817z" stroke-linecap="null" stroke-linejoin="null" stroke-dasharray="null" stroke-width="3" fill="#ffffff" fill-opacity="1"/>
   <path id="svg_105" stroke="#000000" d="m376.874636,269.615154c0,2.247497 -8.198804,4.069453 -18.31254,4.069453m18.31254,-4.069453l0,0c0,2.247497 -8.198804,4.069453 -18.31254,4.069453c-10.113733,0 -18.312535,-1.821953 -18.312535,-4.069453m0,0l0,0c0,-2.247494 8.198802,-4.069452 18.312535,-4.069452c10.113736,0 18.31254,1.821958 18.31254,4.069452l0,16.277817c0,2.247494 -8.198804,4.069445 -18.31254,4.069445c-10.113733,0 -18.312535,-1.821951 -18.312535,-4.069445l0,-16.277817z" stroke-linecap="null" stroke-linejoin="null" stroke-dasharray="null" stroke-width="3" fill="#ffffff" fill-opacity="1"/>
   <path id="svg_106" stroke="#000000" d="m376.874636,254.167846c0,2.247497 -8.198804,4.069453 -18.31254,4.069453m18.31254,-4.069453l0,0c0,2.247497 -8.198804,4.069453 -18.31254,4.069453c-10.113733,0 -18.312535,-1.821953 -18.312535,-4.069453m0,0l0,0c0,-2.247494 8.198802,-4.069451 18.312535,-4.069451c10.113736,0 18.31254,1.821957 18.31254,4.069451l0,16.277817c0,2.247494 -8.198804,4.069446 -18.31254,4.069446c-10.113733,0 -18.312535,-1.821952 -18.312535,-4.069446l0,-16.277817z" stroke-linecap="null" stroke-linejoin="null" stroke-dasharray="null" stroke-width="3" fill="#ffffff" fill-opacity="1"/>
  </g>
  <g id="svg_107" stroke="null" class="" stroke-width="3" fill="#ffffff" fill-opacity="1">
   <path id="svg_108" stroke="#000000" d="m517.57952,280.081042c0,2.247496 -8.198803,4.069452 -18.31254,4.069452m18.31254,-4.069452l0,0c0,2.247496 -8.198803,4.069452 -18.31254,4.069452c-10.113733,0 -18.312534,-1.821952 -18.312534,-4.069452m0,0l0,0c0,-2.247494 8.198801,-4.069452 18.312534,-4.069452c10.113737,0 18.31254,1.821958 18.31254,4.069452l0,16.277817c0,2.247494 -8.198803,4.069445 -18.31254,4.069445c-10.113733,0 -18.312534,-1.821951 -18.312534,-4.069445l0,-16.277817z" stroke-linecap="null" stroke-linejoin="null" stroke-dasharray="null" stroke-width="3" fill="#ffffff" fill-opacity="1"/>
   <path id="svg_109" stroke="#000000" d="m517.703738,267.540149c0,2.247497 -8.198804,4.069453 -18.31254,4.069453m18.31254,-4.069453l0,0c0,2.247497 -8.198804,4.069453 -18.31254,4.069453c-10.113733,0 -18.312535,-1.821953 -18.312535,-4.069453m0,0l0,0c0,-2.247494 8.198802,-4.069452 18.312535,-4.069452c10.113736,0 18.31254,1.821958 18.31254,4.069452l0,16.277817c0,2.247494 -8.198804,4.069445 -18.31254,4.069445c-10.113733,0 -18.312535,-1.821951 -18.312535,-4.069445l0,-16.277817z" stroke-linecap="null" stroke-linejoin="null" stroke-dasharray="null" stroke-width="3" fill="#ffffff" fill-opacity="1"/>
   <path id="svg_110" stroke="#000000" d="m517.703738,252.092841c0,2.247497 -8.198804,4.069453 -18.31254,4.069453m18.31254,-4.069453l0,0c0,2.247497 -8.198804,4.069453 -18.31254,4.069453c-10.113733,0 -18.312535,-1.821953 -18.312535,-4.069453m0,0l0,0c0,-2.247494 8.198802,-4.069451 18.312535,-4.069451c10.113736,0 18.31254,1.821957 18.31254,4.069451l0,16.277817c0,2.247494 -8.198804,4.069446 -18.31254,4.069446c-10.113733,0 -18.312535,-1.821952 -18.312535,-4.069446l0,-16.277817z" stroke-linecap="null" stroke-linejoin="null" stroke-dasharray="null" stroke-width="3" fill="#ffffff" fill-opacity="1"/>
  </g>
  <line id="svg_111" y2="344.225830078125" x2="356.3291015625" y1="312.225830078125" x1="356.3291015625" stroke-linecap="null" stroke-linejoin="null" stroke-dasharray="null" stroke-width="3" stroke="#ffffff" fill="none" class=""/>
  <line id="svg_112" y2="343.241455078125" x2="495.3291015625" y1="311.225830078125" x1="495.3291015625" stroke-linecap="null" stroke-linejoin="null" stroke-dasharray="null" stroke-width="3" stroke="#ffffff" fill="none" class="selected"/>
  <g id="svg_113" class="" stroke-width="3" fill="#ffffff" fill-opacity="1">
   <path id="svg_114" d="m432.625371,102.750328c0,4.510326 -16.453541,8.166668 -36.750012,8.166668m36.750012,-8.166668l0,0c0,4.510326 -16.453541,8.166668 -36.750012,8.166668c-20.296464,0 -36.75,-3.656335 -36.75,-8.166668m0,0l0,0c0,-4.510321 16.453536,-8.166666 36.75,-8.166666c20.296471,0 36.750012,3.656345 36.750012,8.166666l0,32.666684c0,4.510321 -16.453541,8.166653 -36.750012,8.166653c-20.296464,0 -36.75,-3.656332 -36.75,-8.166653l0,-32.666684z" stroke-linecap="null" stroke-linejoin="null" stroke-dasharray="null" stroke-width="3" stroke="#000000" fill="#ffffff" fill-opacity="1"/>
   <path id="svg_115" d="m432.874654,77.582987c0,4.510326 -16.453541,8.166668 -36.750012,8.166668m36.750012,-8.166668l0,0c0,4.510326 -16.453541,8.166668 -36.750012,8.166668c-20.296464,0 -36.75,-3.656335 -36.75,-8.166668m0,0l0,0c0,-4.510321 16.453536,-8.166666 36.75,-8.166666c20.296471,0 36.750012,3.656345 36.750012,8.166666l0,32.666684c0,4.510321 -16.453541,8.166653 -36.750012,8.166653c-20.296464,0 -36.75,-3.656332 -36.75,-8.166653l0,-32.666684z" stroke-linecap="null" stroke-linejoin="null" stroke-dasharray="null" stroke-width="3" stroke="#000000" fill="#ffffff" fill-opacity="1"/>
   <path id="svg_116" d="m432.874654,46.582987c0,4.510326 -16.453541,8.166668 -36.750012,8.166668m36.750012,-8.166668l0,0c0,4.510326 -16.453541,8.166668 -36.750012,8.166668c-20.296464,0 -36.75,-3.656335 -36.75,-8.166668m0,0l0,0c0,-4.510321 16.453536,-8.166666 36.75,-8.166666c20.296471,0 36.750012,3.656345 36.750012,8.166666l0,32.666684c0,4.510321 -16.453541,8.166653 -36.750012,8.166653c-20.296464,0 -36.75,-3.656332 -36.75,-8.166653l0,-32.666684z" stroke-linecap="null" stroke-linejoin="null" stroke-dasharray="null" stroke-width="3" stroke="#000000" fill="#ffffff" fill-opacity="1"/>
  </g>
 </g>
</svg>